<svg width="100%" height="100%" viewBox="0 0 3508 2481" version="1.1" xmlns="http://www.w3.org/2000/svg" xmlns:xlink="http://www.w3.org/1999/xlink" xml:space="preserve" style="fill-rule:evenodd;clip-rule:evenodd;stroke-linecap:round;"><g id="Layer1"><path d="M1569.46,882.78C1570.79,882.863 1575.73,883.222 1580.09,884.14C1599.02,888.132 1630.53,899.242 1649.63,910.025C1668.65,920.76 1702.05,937.123 1705.5,939.109C1710.32,941.88 1721.36,948.903 1731.07,954.206C1738.61,958.326 1745.6,961.261 1749.27,961.626C1762.07,962.901 1773.14,958.589 1782.24,952.741C1790.25,947.592 1796.6,941.27 1801.09,937.56C1813.19,927.564 1855.19,895.579 1860.23,892.342C1861.84,891.314 1886.49,874.291 1915.38,865.453C1916.47,865.119 1920.43,863.206 1934.93,863.052C1943.19,862.965 1960.07,871.422 1969.5,876.765C1982.04,883.872 1996.38,900.514 2001.08,904.941C2004.29,907.97 2009.36,907.821 2012.39,904.609C2015.42,901.396 2015.27,896.329 2012.06,893.3C2006.94,888.473 1991.06,870.594 1977.39,862.845C1965.86,856.314 1944.86,846.946 1934.76,847.053C1916.9,847.243 1912.05,849.741 1910.7,850.152C1879.75,859.62 1853.3,877.778 1851.59,878.88C1846.42,882.199 1803.32,914.971 1790.9,925.223C1786.76,928.642 1780.97,934.536 1773.59,939.281C1767.29,943.327 1759.71,946.587 1750.85,945.705C1748.37,945.458 1743.85,942.957 1738.74,940.164C1729.14,934.925 1718.24,927.978 1713.48,925.24C1710.02,923.249 1676.56,906.849 1657.5,896.091C1634.11,882.891 1593.35,869.284 1575.19,867.077C1570.88,866.554 1567.51,866.686 1565.37,867.202C1563,867.771 1561.33,868.837 1560.18,869.958C1557.03,873.046 1556.97,878.115 1560.06,881.271C1562.58,883.846 1566.42,884.357 1569.46,882.78Z" style="fill:rgb(255,210,129);"></path><g transform="matrix(0.849052,0,0,0.408636,285.025,546.548)"><path d="M1915.01,855.263C1914.01,855.504 1913.19,855.698 1913.08,855.709C1912.78,855.739 1912.67,855.838 1912.41,855.896C1911.8,856.037 1912.07,855.99 1911.73,856.112L1911.72,856.117C1911.44,856.007 1911.1,856.086 1910.67,856.433C1910.48,856.491 1910.19,856.586 1910.06,856.676C1910.13,856.614 1910.28,856.514 1910.28,856.514C1910.28,856.514 1907.95,857.267 1907.57,857.376C1907.55,857.382 1907.53,857.389 1907.53,857.389L1907.53,857.389C1907.46,857.405 1907.4,857.428 1907.33,857.46C1907.18,857.533 1905.66,865.334 1908.05,864.649C1908.42,864.545 1909.85,864.054 1910.75,863.709C1910.78,863.711 1911.04,863.722 1911.26,863.652C1911.34,863.629 1911.44,863.587 1911.54,863.532C1911.76,863.515 1912.02,863.46 1912.34,863.345C1912.57,863.261 1912.38,863.289 1912.8,863.192C1912.97,863.153 1913.05,863.062 1913.25,863.042C1913.53,863.014 1919.03,861.674 1919.16,861.649C1919.33,861.617 1920.76,861.281 1920.95,861.121C1921.8,860.397 1921.98,859.02 1922.04,858.317C1922.11,857.444 1922.1,856.36 1921.7,855.402C1921.58,855.022 1921.39,854.621 1921.1,854.274C1920.56,853.631 1920.1,853.561 1919.93,853.562L1917.35,852.248C1916.72,851.789 1915.99,852.1 1915.49,853.166C1915.22,853.761 1915.06,854.501 1915.01,855.263ZM1909.27,862.858C1909.04,863.708 1908.64,864.362 1908.15,864.605C1908.97,864.201 1909.2,863.101 1909.25,862.926L1909.27,862.858ZM1910.95,863.632L1910.77,863.7C1910.84,863.677 1911.05,863.608 1911.23,863.528L1911.2,863.524L1910.95,863.632ZM1911.31,863.491C1911.38,863.456 1911.45,863.421 1911.48,863.387C1911.46,863.408 1911.39,863.444 1911.29,863.49L1911.31,863.491ZM1911.76,863.411C1911.82,863.377 1911.89,863.328 1911.97,863.263C1911.91,863.313 1911.83,863.365 1911.76,863.411ZM1909.43,859.938C1909.56,860.822 1909.56,861.783 1909.29,862.787C1909.49,862.02 1909.56,861.103 1909.46,860.188C1909.45,860.103 1909.44,860.02 1909.43,859.938ZM1912.34,856.877C1912.93,858.309 1912.85,861.207 1912.8,861.841C1912.86,861.693 1912.9,861.548 1912.93,861.423C1913.08,860.767 1913.12,860.093 1913.09,859.446C1913.04,858.594 1912.88,857.673 1912.38,856.916C1912.37,856.905 1912.36,856.892 1912.34,856.877ZM1907.78,857.362C1908.5,857.396 1909.15,858.346 1909.4,859.781C1909.34,859.402 1909,857.383 1907.78,857.362ZM1909.67,858.616C1909.62,858.879 1909.59,859.133 1909.58,859.375C1909.6,859.122 1909.63,858.869 1909.67,858.616ZM1909.69,858.513C1909.82,857.888 1910.33,856.831 1910.33,856.831C1910.33,856.831 1910.28,856.906 1910.27,856.928C1910.07,857.239 1909.97,857.528 1909.92,857.682C1909.82,857.967 1909.75,858.244 1909.69,858.513ZM1910.67,856.432C1910.79,856.395 1910.88,856.373 1910.88,856.373C1910.88,856.373 1910.81,856.371 1910.75,856.388C1910.73,856.394 1910.7,856.413 1910.67,856.432Z" style="fill:rgb(255,210,129);"></path></g><g transform="matrix(2.38978,0,0,0.662605,-2675.18,329.282)"><path d="M1920.97,857.812C1921.07,857.763 1921.39,857.642 1921.5,857.6C1921.75,857.498 1922.44,858.321 1922.39,858.327C1922.17,858.35 1921.99,857.835 1921.89,857.688C1921.54,857.142 1921.37,856.651 1921.11,856.107" style="fill:none;stroke:rgb(255,210,129);stroke-width:0.57px;stroke-linejoin:round;stroke-miterlimit:1.5;"></path></g><path d="M1920.86,855.388C1921.73,855.234 1923.76,854.882 1925.48,855.106C1935.02,856.341 1949.6,861.764 1955.05,863.69C1956.36,864.15 1957.78,863.467 1958.24,862.166C1958.7,860.865 1958.02,859.435 1956.72,858.976C1951.08,856.984 1935.99,851.425 1926.12,850.147C1923.83,849.851 1921.13,850.26 1919.98,850.465C1918.62,850.706 1917.72,852.005 1917.96,853.364C1918.2,854.722 1919.5,855.629 1920.86,855.388Z" style="fill:rgb(255,210,129);"></path><g transform="matrix(0.937287,0,0,0.506711,115.278,462.773)"><path d="M1926.5,859.286C1929.67,860.743 1932.48,862.896 1935.69,864.259C1937.13,864.867 1938.56,863.205 1938.89,860.55C1939.22,857.896 1938.32,855.248 1936.88,854.64C1933.7,853.292 1930.92,851.153 1927.79,849.71C1926.37,849.052 1924.92,850.663 1924.56,853.306C1924.2,855.948 1925.08,858.628 1926.5,859.286Z" style="fill:rgb(255,210,129);"></path></g><g transform="matrix(0.937287,0,0,0.506711,115.278,462.773)"><path d="M1924.22,862.246C1924.27,862.473 1924.34,862.683 1924.41,862.863C1924.7,863.606 1925.19,864.647 1926.43,865.3C1927.85,866.041 1929.32,864.516 1929.72,861.896C1930.03,859.898 1929.62,857.836 1928.78,856.642C1928.76,856.55 1928.74,856.465 1928.71,856.386C1928.48,855.647 1928.12,854.807 1927.38,854.098C1925.74,852.531 1923.63,851.366 1921.65,850.31C1920.23,849.559 1918.75,851.074 1918.35,853.691C1917.94,856.308 1918.76,859.043 1920.17,859.795C1921.54,860.522 1922.99,861.266 1924.22,862.246Z" style="fill:rgb(255,210,129);"></path></g><path d="M1946.47,861.801C1948.11,861.932 1949.63,862.622 1951.14,863.205C1952.43,863.7 1953.88,863.056 1954.38,861.767C1954.87,860.479 1954.23,859.032 1952.94,858.537C1950.98,857.784 1948.99,856.987 1946.87,856.817C1945.49,856.706 1944.29,857.733 1944.18,859.109C1944.07,860.484 1945.09,861.69 1946.47,861.801Z" style="fill:rgb(255,210,129);"></path><path d="M1950.66,862.185C1950.93,862.287 1953.21,863.144 1953.65,863.356C1954.89,863.952 1956.39,863.426 1956.98,862.182C1957.58,860.938 1957.05,859.443 1955.81,858.847C1955.25,858.58 1953.27,857.732 1952.16,857.409C1951.59,857.243 1951.12,857.192 1950.84,857.197C1949.46,857.223 1948.36,858.364 1948.39,859.743C1948.41,861.029 1949.41,862.071 1950.66,862.185Z" style="fill:rgb(255,210,129);"></path><g transform="matrix(1.33039,-0.162122,0.286416,2.35036,-793.942,-919.627)"><path d="M1508.83,898.625C1514.12,895.498 1519.01,890.842 1523.88,887.098C1528.3,883.709 1533.97,882.251 1539.54,880.242C1546,877.913 1551.15,876.398 1556.33,875.891C1571.06,874.45 1583.02,871.892 1596.67,878.33C1598.64,879.263 1601.59,879.112 1603.23,877.993C1604.88,876.874 1604.62,875.208 1602.64,874.275C1586.39,866.607 1572.28,868.973 1554.74,870.689C1548.53,871.297 1542.27,872.999 1534.53,875.79C1528,878.144 1521.55,879.993 1516.38,883.965C1511.73,887.532 1507.13,891.993 1502.09,894.973C1500.31,896.025 1500.37,897.697 1502.23,898.705C1504.09,899.713 1507.05,899.677 1508.83,898.625Z" style="fill:rgb(255,210,129);"></path></g><path d="M1961.46,864.193C1961.66,864.446 1962,864.573 1962.33,864.487C1962.77,864.373 1963.04,863.918 1962.93,863.472C1962.91,863.402 1962.87,863.292 1962.78,863.166C1962.72,863.088 1962.47,862.846 1962.06,862.524C1961.06,861.724 1958.99,860.207 1957.48,859.372C1956.67,858.929 1955.99,858.691 1955.6,858.696C1955.14,858.702 1954.77,859.08 1954.78,859.54C1954.78,859.999 1955.16,860.368 1955.62,860.363C1955.71,860.361 1955.83,860.423 1955.99,860.489C1956.25,860.602 1956.56,860.765 1956.9,860.959C1958.56,861.922 1960.8,863.614 1961.41,864.145L1961.46,864.193Z" style="fill:rgb(255,210,129);"></path><g transform="matrix(0.660703,0,0,1.50834,503.928,-704.286)"><path d="M1392.58,1489.01C1411.66,1480.87 1427.6,1467.18 1439.84,1450.53C1456.08,1428.44 1466.84,1400.88 1475.47,1376.75C1482.43,1357.3 1488.44,1339.89 1488.34,1319.48C1488.31,1312.53 1475.39,1306.9 1459.52,1306.91C1443.65,1306.93 1430.79,1312.58 1430.83,1319.54C1430.92,1338.54 1425.13,1354.74 1418.65,1372.85C1410.46,1395.72 1400.49,1421.87 1385.1,1442.81C1376.25,1454.84 1366.25,1465.08 1352.46,1470.96C1341.09,1475.81 1340.85,1483.79 1351.92,1488.77C1362.99,1493.75 1381.21,1493.86 1392.58,1489.01Z" style="fill:rgb(255,210,129);"></path></g><g transform="matrix(0.383014,0,0,1.05493,905.908,-70.6342)"><path d="M1405.91,1432.78L1405.03,1433.02C1401.22,1434.11 1391.27,1436.77 1387.05,1443.49C1381.57,1452.23 1373.45,1469.2 1372.07,1472.1C1356.45,1478.63 1355.65,1488.5 1371.32,1495.38C1385.63,1501.66 1409.26,1503.51 1428.94,1500.48C1436.5,1502.8 1446.05,1504.32 1456.66,1504.64C1483.94,1505.48 1507.97,1498.13 1510.29,1488.22C1516.93,1459.81 1522.69,1433.45 1511.56,1404.82C1504.62,1386.94 1459.47,1388.99 1453.56,1389.37C1444.74,1389.94 1422.84,1391.8 1414.57,1402.11C1414.03,1402.79 1412.59,1407.44 1412.1,1409.27C1411.45,1411.75 1410.77,1414.23 1410.14,1416.73C1408.79,1422.09 1407.43,1427.45 1405.91,1432.78Z" style="fill:rgb(255,210,129);"></path></g><g transform="matrix(-0.660703,0,0,1.50834,3041.2,-697.539)"><path d="M1352.46,1470.96C1366.25,1465.08 1376.25,1454.84 1385.1,1442.81C1400.49,1421.87 1410.46,1395.72 1418.65,1372.85C1425.13,1354.74 1430.92,1338.54 1430.83,1319.54C1430.79,1312.58 1443.65,1306.93 1459.52,1306.91C1475.39,1306.9 1488.31,1312.53 1488.34,1319.48C1488.44,1339.89 1482.43,1357.3 1475.47,1376.75C1466.84,1400.88 1456.08,1428.44 1439.84,1450.53C1427.6,1467.18 1411.66,1480.87 1392.58,1489.01C1381.21,1493.86 1362.99,1493.75 1351.92,1488.77C1340.85,1483.79 1341.09,1475.81 1352.46,1470.96Z" style="fill:rgb(255,210,129);"></path></g><g transform="matrix(-0.383014,0,0,1.05493,2562.24,-92.3522)"><path d="M1428.94,1500.48C1409.26,1503.51 1385.63,1501.66 1371.32,1495.38C1355.65,1488.5 1356.45,1478.63 1372.07,1472.1C1373.45,1469.2 1381.57,1452.23 1387.05,1443.49C1391.27,1436.77 1401.22,1434.11 1405.03,1433.02L1405.91,1432.78C1407.43,1427.45 1408.79,1422.09 1410.14,1416.73C1410.77,1414.23 1411.45,1411.75 1412.1,1409.27C1412.59,1407.44 1414.03,1402.79 1414.57,1402.11C1422.84,1391.8 1444.74,1389.94 1453.56,1389.37C1459.47,1388.99 1504.62,1386.94 1511.56,1404.82C1522.69,1433.45 1516.93,1459.81 1510.29,1488.22C1507.97,1498.13 1483.94,1505.48 1456.66,1504.64C1446.05,1504.32 1436.5,1502.8 1428.94,1500.48Z" style="fill:rgb(255,210,129);"></path></g></g><g transform="matrix(1.39301,0,0,1.16906,-553.431,71.1773)"><clipPath id="_clip1"><rect x="397.29" y="1201.67" width="2518.19" height="859.073"></rect></clipPath><g clip-path="url(#_clip1)"><ellipse cx="1656.38" cy="1739.34" rx="1785.22" ry="537.674" style="fill:rgb(251,211,210);"></ellipse></g></g><g id="Layer2"><g><g transform="matrix(2.52719,0.0792898,-0.0182862,0.835936,-3163.46,78.2887)"><path d="M2088.14,1484.29C2100.23,1480.48 2155.39,1481.59 2178.46,1488.96C2178.87,1489.09 2179.23,1488.19 2179.28,1486.96C2179.33,1485.73 2179.03,1484.63 2178.63,1484.5C2155.48,1477.1 2100.13,1476 2088,1479.83C2087.59,1479.96 2087.29,1481.06 2087.33,1482.3C2087.37,1483.53 2087.73,1484.42 2088.14,1484.29Z" style="fill:rgb(241,101,112);"></path></g><g transform="matrix(2.76332,0,0,2.36997,-3687.34,-2027.97)"><path d="M2071.38,1597.96C2072.26,1581.04 2083.45,1556.18 2099.38,1534.43C2115.32,1512.67 2136.01,1494.01 2155.95,1489.52C2161.37,1488.3 2164.55,1487.97 2167.19,1487.56C2169.04,1487.27 2169.46,1487.24 2172.27,1486.78C2172.5,1486.74 2172.66,1486.5 2172.62,1486.23C2172.59,1485.97 2172.38,1485.78 2172.16,1485.82C2169.35,1486.28 2168.93,1486.31 2167.08,1486.6C2164.43,1487.01 2161.24,1487.35 2155.8,1488.57C2135.69,1493.09 2114.82,1511.87 2098.75,1533.8C2082.69,1555.74 2071.45,1580.83 2070.55,1597.9C2070.54,1598.17 2070.71,1598.4 2070.94,1598.42C2071.17,1598.43 2071.37,1598.23 2071.38,1597.96Z" style="fill:rgb(241,101,112);"></path></g><g transform="matrix(0.503374,0,0,2.47981,992.932,-2203.49)"><path d="M2073.24,1597.94C2074.49,1574.16 2095.95,1534.78 2122.43,1510.21C2133.68,1499.78 2145.68,1492.03 2157.56,1489.36C2162.84,1488.17 2165.94,1487.84 2168.51,1487.44C2170.39,1487.15 2170.81,1487.12 2173.65,1486.66C2174.62,1486.5 2174.77,1486.21 2173.98,1486.01C2173.19,1485.81 2171.76,1485.78 2170.78,1485.94C2168,1486.4 2167.59,1486.43 2165.75,1486.71C2163.03,1487.13 2159.77,1487.48 2154.18,1488.74C2142.04,1491.47 2129.47,1499.36 2117.99,1510.01C2091.44,1534.64 2069.94,1574.1 2068.69,1597.93C2068.68,1598.18 2069.69,1598.39 2070.94,1598.4C2072.2,1598.4 2073.23,1598.19 2073.24,1597.94Z" style="fill:rgb(241,101,112);"></path></g></g><path d="M2038.08,1634.66C2037.61,1635.87 2035.78,1640.72 2035.33,1643.44L2034.95,1645.44C2033.51,1647.77 2030.19,1653.32 2029.42,1656.41C2029.31,1656.86 2029.09,1657.52 2028.86,1657.92C2027.29,1660.6 2025.22,1663.85 2024.34,1666.68C2024.14,1667.33 2023.67,1669 2023.41,1669.96C2021.71,1672.72 2020.35,1675.73 2019.71,1677.21C2017.58,1680.28 2015.41,1683.4 2014.38,1686.83C2014.14,1687.63 2013.93,1688.7 2013.77,1689.75L2013.09,1690.8C2011.59,1693.37 2010.04,1696.91 2008.61,1699.77C2007.11,1702.78 2006.16,1709.55 2005.95,1711.2C2004.95,1715.62 2004.55,1720.87 2004.55,1720.87C2004.55,1720.87 2005.1,1718.22 2005.73,1716.66C2005.35,1717.65 2004.96,1719.22 2004.63,1720.77C2002.66,1725.73 2002.73,1731.47 2005.28,1736.62C2010.06,1746.26 2021.77,1750.21 2031.41,1745.43C2035.94,1743.19 2042.08,1728.38 2042.64,1727.01C2043.13,1724.22 2043.41,1721.51 2043.51,1720.36C2043.98,1718.47 2044.33,1716.45 2044.57,1714.95C2045.29,1713.37 2046.02,1711.74 2046.77,1710.46C2046.54,1710.85 2045.99,1711.64 2045.99,1711.64C2045.99,1711.64 2050.51,1704.88 2051.34,1701.54C2051.49,1700.96 2051.62,1700.19 2051.74,1699.42C2052,1699.06 2052.25,1698.72 2052.44,1698.45C2054.03,1696.14 2055.83,1691.69 2056.36,1690.33C2058.15,1687.29 2059.91,1683.06 2060.99,1680.03C2061.45,1679.33 2062.15,1678.25 2062.51,1677.63C2064,1675.09 2065.6,1671.29 2066.61,1668.08C2067.54,1666.73 2069.41,1663.95 2070.17,1662.43C2071.85,1659.08 2072.98,1654.48 2073.65,1650.71C2074.13,1649.49 2075.68,1645.42 2076.15,1643.14C2076.95,1639.29 2077.11,1635.02 2078.93,1631.39C2083.69,1621.84 2083.83,1609.93 2083.83,1599.71C2083.83,1598.88 2083.65,1596.33 2083.53,1594.73C2085.2,1587.84 2083.05,1580.28 2077.3,1575.34C2069.15,1568.32 2056.82,1569.24 2049.8,1577.4C2047.69,1579.86 2045.63,1583.47 2044.82,1588.29C2044.26,1591.66 2044.85,1600.26 2044.85,1600.26C2044.85,1600.26 2044.83,1599.87 2044.83,1599.71C2044.83,1604.27 2046.15,1609.72 2044.03,1613.97C2040.8,1620.44 2039.49,1627.78 2038.08,1634.66ZM2042.58,1727.37L2042.68,1726.91L2042.64,1727.01L2042.58,1727.37C2042.3,1728.68 2041.46,1732.35 2040.83,1733.61C2041.58,1732.1 2042.16,1729.73 2042.58,1727.37Z" style="fill:rgb(241,101,112);"></path><path d="M2068.23,1491.1C2066.72,1492.03 2065.18,1493.27 2063.64,1494.88C2060.33,1498.34 2057.21,1504.17 2055.74,1511.61C2054.61,1517.28 2054.36,1524.5 2054.09,1529.68C2053.8,1530.6 2053.54,1531.52 2053.32,1532.46C2052.07,1537.75 2045.27,1571.81 2043.49,1580.77L2042.85,1582.01C2042.09,1583.53 2040.52,1587.24 2040.19,1588.54C2039.55,1591.08 2039.52,1593.15 2039.61,1594.59C2039.91,1599.98 2042.11,1603.67 2044.28,1606.21C2045.65,1607.81 2047.2,1609.15 2048.93,1610.22C2047.41,1616.1 2045.58,1621.89 2045.58,1628.02C2045.58,1626.4 2045.73,1624.98 2045.98,1623.73C2045.7,1627.13 2045.86,1631.55 2046.04,1632.36C2048.87,1645.05 2059.22,1646.87 2061.46,1647.29C2062.01,1647.39 2065.74,1647.7 2070.04,1646.73C2073.74,1647.14 2077.54,1646.61 2080.96,1644.37C2084.03,1642.35 2088.12,1638.53 2092.29,1633.61C2098.2,1626.64 2105,1616.7 2108.96,1612.72C2124.11,1597.51 2138.53,1580.01 2157.23,1561.31C2161.9,1556.64 2213.74,1522.86 2218.13,1518.48C2225.74,1510.87 2225.74,1498.51 2218.13,1490.9C2210.52,1483.29 2198.16,1483.29 2190.55,1490.9C2188.18,1493.27 2171.9,1504.26 2156.73,1514.58C2158.54,1510.23 2158.66,1505.89 2157.37,1501.57C2156.61,1499.02 2153.95,1490.44 2142.54,1487.99C2140.97,1487.65 2130.71,1486.94 2127.35,1486.72C2114.94,1482.49 2093.58,1482.13 2081.27,1483.65C2075.89,1484.32 2071.3,1487.12 2068.23,1491.1ZM2135.99,1528.88C2134.71,1529.19 2133.41,1529.45 2132.1,1529.68C2129.07,1530.22 2125.79,1529.87 2123.13,1531.38C2118.26,1534.15 2114.27,1540.06 2110.36,1546C2105.13,1553.94 2100.6,1562.45 2096.86,1568.78C2106.89,1557.83 2117.34,1546.04 2129.65,1533.74C2130.47,1532.91 2132.76,1531.19 2135.99,1528.88Z" style="fill:rgb(241,101,112);"></path><path d="M2215.79,1502.08C2217.85,1502.4 2219.92,1502.82 2221.97,1503.2C2224.87,1503.75 2227.8,1504.01 2230.71,1504.45C2232.89,1504.77 2235.11,1505.18 2237.32,1505.31C2239.54,1505.45 2241.81,1505.33 2244.02,1505.18C2245.4,1505.08 2246.81,1505.17 2248.19,1505.03C2248.58,1504.99 2249.35,1504.88 2249.59,1504.84C2254.12,1504.66 2257.74,1500.92 2257.74,1496.35C2257.74,1491.66 2253.93,1487.85 2249.24,1487.85C2248.39,1487.85 2247.38,1488.03 2246.5,1488.12C2245.3,1488.23 2244.07,1488.13 2242.86,1488.22C2241.37,1488.32 2239.84,1488.43 2238.34,1488.35C2236.63,1488.24 2234.92,1487.89 2233.23,1487.63C2230.52,1487.23 2227.8,1487 2225.11,1486.49C2222.8,1486.06 2220.48,1485.6 2218.17,1485.24C2217.4,1485.12 2213.41,1485.1 2212.11,1485.56C2210.46,1486.14 2209.32,1487.06 2208.52,1487.94C2205.38,1491.43 2205.66,1496.81 2209.15,1499.95C2211.03,1501.64 2213.46,1502.34 2215.79,1502.08ZM2219.81,1500.53L2219.7,1500.61L2219.76,1500.56L2219.81,1500.53ZM2220.2,1500.23L2220.03,1500.36L2220.16,1500.26L2220.2,1500.23ZM2220.31,1500.13C2220.63,1499.87 2220.91,1499.59 2221.15,1499.32C2220.89,1499.62 2220.61,1499.89 2220.31,1500.13Z" style="fill:rgb(241,101,112);"></path><g transform="matrix(0.90884,0,0,0.948235,201.704,78.2893)"><path d="M2211.35,1503.43C2208.02,1503.88 2205.06,1506.04 2203.84,1509.28C2202.09,1513.93 2204.62,1519.07 2209.47,1520.75C2210.27,1521.02 2212.05,1521.56 2214.64,1521.11C2216.58,1520.78 2223.96,1518.25 2225.89,1517.28C2227.51,1516.47 2229.1,1515.68 2230.76,1514.96C2231.97,1514.44 2236.28,1512.56 2237.1,1512.22C2237.86,1511.9 2240.33,1510.73 2240.72,1510.53C2241.73,1510.03 2242.71,1509.73 2243.77,1509.31C2244.18,1509.14 2245.73,1508.42 2246.26,1508.17C2247.77,1507.7 2250.34,1506.83 2251.04,1506.6C2252.25,1506.21 2256.2,1505.23 2256.91,1504.93C2256.78,1504.99 2256.36,1505.14 2256.36,1505.14C2256.36,1505.14 2260.9,1504.18 2261.9,1504.03C2262.22,1503.99 2262.53,1503.94 2262.86,1503.94C2268.03,1503.94 2272.22,1499.93 2272.22,1494.98C2272.22,1490.03 2268.03,1486.02 2262.86,1486.02C2261.56,1486.02 2260.32,1486.13 2259.05,1486.32C2257.21,1486.59 2250.77,1487.94 2249.41,1488.51C2249.54,1488.45 2249.98,1488.3 2249.98,1488.3C2249.98,1488.3 2246.01,1489.31 2245.05,1489.62C2244.38,1489.84 2241.44,1490.88 2240.66,1491.08C2240.06,1491.23 2237.41,1492.43 2236.63,1492.74C2235.04,1493.37 2233.59,1493.88 2232.08,1494.63C2231.81,1494.77 2230.11,1495.58 2229.59,1495.8C2228.75,1496.15 2224.32,1498.09 2223.08,1498.62C2221.08,1499.48 2219.17,1500.42 2217.23,1501.39C2216.35,1501.83 2212.29,1503.13 2211.35,1503.43Z" style="fill:rgb(241,101,112);"></path></g><path d="M2261.81,1496.1C2261.76,1496.41 2261.68,1497 2261.68,1497.32C2261.67,1497.89 2261.78,1498.36 2261.89,1498.68C2262.27,1499.76 2262.97,1500.36 2263.66,1500.7C2264.11,1500.92 2264.64,1501.08 2265.25,1501.12C2265.83,1501.15 2266.65,1500.97 2267.06,1500.89C2267.59,1500.79 2268.13,1500.77 2268.66,1500.66C2269.19,1500.55 2270.15,1500.2 2270.32,1500.13C2274.01,1499.72 2277.8,1500.01 2281.46,1499.4C2282.29,1499.26 2283.1,1499.12 2283.96,1499.01C2284.46,1498.95 2284.95,1498.96 2285.35,1498.88C2286.55,1498.64 2287.55,1498.14 2288.18,1497.03C2290.22,1497.12 2292.16,1497.17 2294.28,1497.52C2296.32,1497.86 2298.55,1497.4 2300.61,1497.4C2302.54,1497.4 2304.11,1495.83 2304.11,1493.9C2304.11,1491.96 2302.54,1490.4 2300.61,1490.4C2298.92,1490.4 2297.1,1490.89 2295.43,1490.62C2292.31,1490.1 2289.56,1490.17 2286.4,1489.92C2283.18,1489.66 2279.99,1489.58 2276.75,1489.58L2271.75,1489.58C2270.94,1489.58 2269.98,1489.54 2269.18,1489.75C2269.11,1489.66 2269.03,1489.59 2268.97,1489.54C2268.15,1488.94 2266.86,1488.21 2264.81,1489.38C2263.84,1489.93 2263.08,1490.79 2262.57,1491.89C2262,1493.15 2261.83,1494.86 2261.81,1496.1ZM2270.71,1490.63C2271.04,1491.24 2271.2,1492.13 2271.2,1493.04C2271.75,1493.01 2272.31,1492.98 2272.87,1492.96C2272.81,1492.34 2272.56,1491.63 2271.84,1490.93C2271.75,1490.85 2271.28,1490.74 2270.71,1490.63Z" style="fill:rgb(241,101,112);"></path><path d="M2300.45,1490.74C2300.01,1490.49 2299.51,1490.35 2298.97,1490.35C2297.32,1490.35 2295.97,1491.7 2295.97,1493.35C2295.97,1494.98 2296.78,1495.91 2297.97,1496.45C2298.64,1496.75 2300.46,1496.74 2300.46,1496.74C2300.46,1496.74 2300.4,1496.74 2300.37,1496.74L2305.27,1496.74C2306.92,1496.74 2308.27,1495.39 2308.27,1493.74C2308.27,1492.08 2306.92,1490.74 2305.27,1490.74L2300.45,1490.74ZM2301.97,1493.21L2301.97,1493.35C2301.97,1493.3 2301.97,1493.26 2301.97,1493.21Z" style="fill:rgb(241,101,112);"></path><path d="M2171.87,1523.58C2175.23,1518.89 2179.05,1514.28 2182.69,1509.83C2183.39,1508.97 2184.55,1508.09 2185.47,1507.12C2186.96,1505.54 2188.1,1503.81 2188.7,1502.07C2188.88,1501.54 2189,1501.01 2189.07,1500.51C2191.2,1500.59 2193.33,1500.64 2195.46,1500.64C2199.6,1500.64 2202.96,1497.28 2202.96,1493.14C2202.96,1489 2199.6,1485.64 2195.46,1485.64C2187.01,1485.64 2178.63,1484.8 2170.28,1484.8C2160.46,1484.8 2149.67,1485.51 2140.33,1483.17C2135.57,1481.98 2128.79,1482.54 2123.84,1482.54C2122.72,1482.54 2119.91,1482.35 2118.27,1482.71C2116.47,1483.1 2115.1,1483.92 2114.14,1484.79C2112.01,1486.73 2111.63,1488.77 2111.6,1490.33C2111.56,1492.11 2112.08,1493.82 2113.37,1495.37C2114.04,1496.18 2118.93,1498.3 2118.93,1498.3C2118.93,1498.3 2118.23,1498.08 2118,1497.97C2118.57,1498.23 2119.06,1498.67 2119.55,1499.06C2122.73,1501.55 2125.5,1504.45 2128.36,1507.31C2134.36,1513.31 2140.49,1519.46 2147.03,1524.87C2148.44,1526.03 2150.24,1528.08 2152.15,1529.7C2154.41,1531.62 2156.85,1533.02 2159.12,1533.59C2161.58,1534.2 2164.54,1533.84 2167.21,1531.24C2168.76,1529.74 2171.38,1524.56 2171.87,1523.58ZM2140.88,1498.61L2140.89,1498.6L2140.86,1498.59L2140.88,1498.61Z" style="fill:rgb(241,101,112);"></path><path d="M2039.67,1594.05C2033.87,1597.42 2029.97,1603.71 2029.97,1610.9C2029.97,1621.66 2038.71,1630.4 2049.47,1630.4C2054.61,1630.4 2060.22,1628.55 2065.14,1624.22C2068.62,1621.15 2072.02,1615.88 2073.66,1613.29C2080.1,1603.06 2086.8,1592.33 2090.64,1580.83C2090.96,1580.49 2092.51,1578.86 2093.46,1578.08C2095.94,1576.03 2098.57,1574.15 2100.87,1572.29C2108.89,1565.8 2117.28,1559.95 2125.54,1553.76C2128.08,1551.85 2135.41,1546.17 2137.16,1544.81C2146.63,1543.48 2153.92,1535.33 2153.92,1525.5C2153.92,1514.74 2145.18,1506 2134.42,1506C2129.52,1506 2123.98,1507.47 2118.52,1510.46C2112.41,1513.8 2106.01,1519.65 2102.14,1522.56C2093.49,1529.04 2084.72,1535.19 2076.33,1541.98C2067.74,1548.94 2057.36,1557.17 2053.72,1568.27C2050.89,1576.92 2045.51,1584.8 2040.67,1592.48L2039.67,1594.05Z" style="fill:rgb(241,101,112);"></path><path d="M2053.83,1617.42C2052.97,1618.78 2049.6,1624.2 2048.29,1626.83C2047.94,1627.52 2047.64,1628.2 2047.39,1628.89C2044.43,1632.96 2041.88,1637.7 2040.27,1640.92C2038.27,1644.91 2032.06,1655.5 2029.13,1658.27C2025.7,1661.52 2024.02,1664.73 2023.28,1667.54C2021.75,1669.7 2020.28,1672.28 2019.02,1675.19C2016.79,1680.35 2015,1686.96 2013.82,1691.61C2007.74,1698.07 2006.67,1708.09 2011.8,1715.79C2016.27,1722.49 2021.66,1724.29 2025.69,1724.97C2031.93,1726.03 2038.41,1724.61 2043.91,1718.84C2046.85,1715.76 2050.34,1706.3 2051.03,1703.55C2051.84,1700.31 2055.15,1689.95 2055.15,1689.95L2054.95,1690.21C2056.07,1688.76 2057.37,1686.73 2058.3,1685.19C2061.26,1682.34 2062.64,1679.3 2063.27,1677.4C2067.98,1670.71 2073.08,1662.5 2075.15,1658.36C2075.74,1657.17 2077.14,1654.22 2077.81,1652.83C2078.43,1652.31 2079.09,1651.75 2079.74,1651.15C2084.69,1647.76 2088.5,1642.36 2088.74,1634.89L2088.75,1634.87C2091.24,1629.9 2092.77,1624.57 2092.77,1618.89C2092.77,1608.12 2084.03,1599.39 2073.27,1599.39C2063,1599.39 2054.57,1607.34 2053.83,1617.42ZM2043.73,1693.41L2044.25,1694.15C2044.08,1693.89 2043.91,1693.65 2043.73,1693.41ZM2043.24,1692.77L2043.46,1693.05L2043.29,1692.83L2043.24,1692.77ZM2058.61,1683.62C2057.61,1684.85 2056.71,1685.87 2055.95,1686.58C2057,1685.59 2057.88,1684.6 2058.61,1683.62ZM2034.17,1654.92C2033.91,1655.05 2033.65,1655.2 2033.39,1655.35C2031.43,1656.5 2030.12,1658.07 2029.31,1659.91C2030.89,1658.03 2032.63,1656.16 2034.17,1654.92Z" style="fill:rgb(241,101,112);"></path><g transform="matrix(-1,0,0,1,3573.01,-0.48094)"><g transform="matrix(2.52719,0.0792898,-0.0182862,0.835936,-3163.46,78.2887)"><path d="M2088,1479.83C2095.11,1477.59 2117.14,1478.94 2138.92,1479.11C2154.3,1479.23 2167.55,1480.42 2177.33,1480.83C2177.74,1480.85 2178.06,1481.87 2178.05,1483.11C2178.04,1484.35 2177.7,1485.34 2177.29,1485.32C2167.52,1484.91 2154.27,1483.72 2138.9,1483.6C2117.18,1483.42 2095.22,1482.06 2088.14,1484.29C2087.73,1484.42 2087.37,1483.53 2087.33,1482.3C2087.29,1481.06 2087.59,1479.96 2088,1479.83Z" style="fill:rgb(241,101,112);"></path></g><g transform="matrix(2.76332,0,0,2.36997,-3687.34,-2027.97)"><path d="M2070.55,1597.9C2071.45,1580.83 2082.69,1555.74 2098.75,1533.8C2114.82,1511.87 2135.69,1493.09 2155.8,1488.57C2161.23,1487.35 2164.53,1486.73 2167.16,1486.16C2169.02,1485.77 2169.98,1485.29 2171.83,1484.04C2172.03,1483.91 2172.28,1483.99 2172.4,1484.22C2172.51,1484.45 2172.45,1484.75 2172.25,1484.88C2170.29,1486.2 2169.27,1486.69 2167.31,1487.12C2164.68,1487.68 2161.38,1488.3 2155.95,1489.52C2136.01,1494.01 2115.32,1512.67 2099.38,1534.43C2083.45,1556.18 2072.26,1581.04 2071.38,1597.96C2071.37,1598.23 2071.17,1598.43 2070.94,1598.42C2070.71,1598.4 2070.54,1598.17 2070.55,1597.9Z" style="fill:rgb(241,101,112);"></path></g><g transform="matrix(-1,0,0,1,3573.01,0.48094)"><path d="M1256.09,1488.73C1256.15,1488.78 1256.41,1489.26 1256.45,1489.3" style="fill:none;stroke:rgb(241,101,112);stroke-width:0.21px;stroke-linejoin:round;stroke-miterlimit:1.5;"></path></g><g transform="matrix(-1,0,0,1,3573.01,0.48094)"><path d="M1256.09,1488.73C1257.45,1488.59 1256.95,1488.81 1256.85,1489" style="fill:none;stroke:rgb(241,101,112);stroke-width:0.21px;stroke-linejoin:round;stroke-miterlimit:1.5;"></path></g><g transform="matrix(-1,0,0,1,3573.01,0.48094)"><path d="M1258.21,1489.02C1258.21,1489.02 1258.23,1489.02 1258.23,1489.02C1257.85,1489.01 1258.84,1489.01 1259.58,1488.94C1260.16,1488.89 1261.63,1488.79 1261.12,1488.94" style="fill:none;stroke:rgb(241,101,112);stroke-width:1px;stroke-linejoin:round;stroke-miterlimit:1.5;"></path></g><g transform="matrix(-1.2644,0,0,1.12007,3905.29,-178.31)"><path d="M1257.66,1490.05C1257.63,1490 1256.78,1489.13 1256.78,1489.08" style="fill:none;stroke:rgb(241,101,112);stroke-width:0.84px;stroke-linejoin:round;stroke-miterlimit:1.5;"></path></g><g transform="matrix(-1,0,0,1,3573.01,0.48094)"><path d="M1256.38,1488.84L1256.38,1488.84" style="fill:none;stroke:rgb(241,101,112);stroke-width:0.42px;stroke-linejoin:round;stroke-miterlimit:1.5;"></path></g><g transform="matrix(-1,0,0,1,3573.01,0.48094)"><path d="M1276.01,1488.2C1273.96,1487.68 1271.33,1487.91 1269.18,1487.91C1267.25,1487.91 1265.68,1489.47 1265.68,1491.41C1265.68,1493.34 1267.25,1494.91 1269.18,1494.91C1270.79,1494.91 1272.79,1494.52 1274.27,1494.98C1275.01,1495.21 1276.55,1495.14 1277.08,1495.11C1277.72,1495.28 1278.5,1495.38 1279.33,1495.43C1279.5,1495.77 1279.74,1496.1 1280.07,1496.41C1280.47,1496.8 1281.08,1497.2 1281.92,1497.4C1282.46,1497.53 1283.96,1497.55 1284.36,1497.56C1286.51,1498.03 1288.9,1497.86 1291.07,1498.27C1292.51,1498.54 1293.93,1498.97 1295.39,1499.21C1297.21,1499.51 1299.09,1499.34 1300.85,1499.67C1301.87,1499.87 1302.9,1500.3 1303.83,1500.73C1303.78,1500.71 1303.63,1500.63 1303.63,1500.63C1303.63,1500.63 1305.22,1501.41 1305.91,1501.49C1307.24,1501.63 1308.25,1501.13 1308.95,1500.43C1309.65,1499.73 1310.04,1498.82 1310.04,1497.78C1310.04,1497.01 1309.71,1496.08 1309.25,1495.38L1308.9,1494.26C1309.03,1493.71 1309.31,1492.49 1309.35,1491.93C1309.42,1490.96 1309.2,1490.19 1308.94,1489.67C1308.54,1488.88 1307.83,1488.12 1306.65,1487.74C1306.13,1487.57 1304.8,1487.51 1304.32,1487.49C1301.77,1487.03 1298.16,1487.25 1295.74,1487.61C1293.25,1487.97 1290.63,1487.42 1288.13,1487.69C1286.28,1487.89 1284.41,1488.05 1282.59,1488.35C1281.61,1488.51 1279.87,1488.69 1278.96,1488.37C1278.19,1488.11 1276.54,1488.17 1276.01,1488.2ZM1303.77,1499.69C1303.79,1499.72 1303.82,1499.75 1303.85,1499.78L1303.77,1499.69Z" style="fill:rgb(241,101,112);"></path></g><g transform="matrix(-1,0,0,1,3573.01,0.48094)"><path d="M1265.92,1493.46L1265.96,1493.46C1266.79,1493.46 1267.46,1492.79 1267.46,1491.96C1267.46,1491.14 1266.79,1490.46 1265.96,1490.46L1265.92,1490.46C1265.1,1490.46 1264.42,1491.14 1264.42,1491.96C1264.42,1492.79 1265.1,1493.46 1265.92,1493.46Z" style="fill:rgb(241,101,112);"></path></g><g transform="matrix(-1,0,0,1,3573.01,0.48094)"><path d="M1257.08,1489C1257.13,1489 1257.18,1488.99 1257.22,1488.98C1257.24,1488.97 1257.27,1488.99 1257.29,1488.98C1257.35,1488.96 1257.41,1488.98 1257.46,1488.98" style="fill:none;stroke:rgb(241,101,112);stroke-width:0.83px;stroke-linejoin:round;stroke-miterlimit:1.5;"></path></g><g transform="matrix(-1,0,0,1,3573.01,0.48094)"><path d="M1256.89,1489C1256.92,1489 1258.08,1488.95 1258.08,1488.94" style="fill:none;stroke:rgb(241,101,112);stroke-width:0.83px;stroke-linejoin:round;stroke-miterlimit:1.5;"></path></g><g transform="matrix(0.503374,0,0,2.47981,992.932,-2203.49)"><path d="M2068.69,1597.93C2069.94,1574.1 2091.44,1534.64 2117.99,1510.01C2129.47,1499.36 2142.04,1491.47 2154.18,1488.74C2159.77,1487.48 2163.03,1487.13 2165.75,1486.71C2167.59,1486.43 2168,1486.4 2170.78,1485.94C2171.76,1485.78 2173.19,1485.81 2173.98,1486.01C2174.77,1486.21 2174.62,1486.5 2173.65,1486.66C2170.81,1487.12 2170.39,1487.15 2168.51,1487.44C2165.94,1487.84 2162.84,1488.17 2157.56,1489.36C2145.68,1492.03 2133.68,1499.78 2122.43,1510.21C2095.95,1534.78 2074.49,1574.16 2073.24,1597.94C2073.23,1598.19 2072.2,1598.4 2070.94,1598.4C2069.69,1598.39 2068.68,1598.18 2068.69,1597.93Z" style="fill:rgb(241,101,112);"></path></g></g><g transform="matrix(-1,0,0,1,3573.01,-0.48094)"><path d="M2083.53,1594.73C2083.65,1596.33 2083.83,1598.88 2083.83,1599.71C2083.83,1609.93 2083.69,1621.84 2078.93,1631.39C2077.11,1635.02 2076.95,1639.29 2076.15,1643.14C2075.68,1645.42 2074.13,1649.49 2073.65,1650.71C2072.98,1654.48 2071.85,1659.08 2070.17,1662.43C2069.41,1663.95 2067.54,1666.73 2066.61,1668.08C2065.6,1671.29 2064,1675.09 2062.51,1677.63C2062.15,1678.25 2061.45,1679.33 2060.99,1680.03C2059.91,1683.06 2058.15,1687.29 2056.36,1690.33C2055.83,1691.69 2054.03,1696.14 2052.44,1698.45C2052.25,1698.72 2052,1699.06 2051.74,1699.42C2051.62,1700.19 2051.49,1700.96 2051.34,1701.54C2050.51,1704.88 2045.99,1711.64 2045.99,1711.64C2045.99,1711.64 2046.54,1710.85 2046.77,1710.46C2046.02,1711.74 2045.29,1713.37 2044.57,1714.95C2044.33,1716.45 2043.98,1718.47 2043.51,1720.36C2043.41,1721.51 2043.13,1724.22 2042.64,1727.01C2042.08,1728.38 2035.94,1743.19 2031.41,1745.43C2021.77,1750.21 2010.06,1746.26 2005.28,1736.62C2002.73,1731.47 2002.66,1725.73 2004.63,1720.77C2004.96,1719.22 2005.35,1717.65 2005.73,1716.66C2005.1,1718.22 2004.55,1720.87 2004.55,1720.87C2004.55,1720.87 2004.95,1715.62 2005.95,1711.2C2006.16,1709.55 2007.11,1702.78 2008.61,1699.77C2010.04,1696.91 2011.59,1693.37 2013.09,1690.8L2013.77,1689.75C2013.93,1688.7 2014.14,1687.63 2014.38,1686.83C2015.41,1683.4 2017.58,1680.28 2019.71,1677.21C2020.34,1675.73 2021.71,1672.72 2023.41,1669.96C2023.67,1669 2024.14,1667.33 2024.34,1666.68C2025.22,1663.85 2027.29,1660.6 2028.86,1657.92C2029.09,1657.52 2029.31,1656.86 2029.42,1656.41C2030.19,1653.32 2033.51,1647.77 2034.95,1645.44L2035.33,1643.44C2035.78,1640.72 2037.61,1635.87 2038.08,1634.66C2039.49,1627.78 2040.8,1620.44 2044.03,1613.97C2046.15,1609.72 2044.83,1604.27 2044.83,1599.71C2044.83,1599.87 2044.85,1600.26 2044.85,1600.26C2044.85,1600.26 2044.26,1591.66 2044.82,1588.29C2045.63,1583.47 2047.69,1579.86 2049.8,1577.4C2056.82,1569.24 2069.15,1568.32 2077.3,1575.34C2083.05,1580.28 2085.2,1587.84 2083.53,1594.73ZM2042.64,1727.01L2042.68,1726.91L2042.58,1727.37C2042.16,1729.73 2041.58,1732.1 2040.83,1733.61C2041.46,1732.35 2042.3,1728.68 2042.58,1727.37L2042.64,1727.01Z" style="fill:rgb(241,101,112);"></path></g><g transform="matrix(-1,0,0,1,3573.01,-0.48094)"><path d="M2127.35,1486.72C2130.71,1486.94 2140.97,1487.65 2142.54,1487.99C2153.95,1490.44 2156.61,1499.02 2157.37,1501.57C2158.66,1505.89 2158.54,1510.23 2156.73,1514.58C2171.9,1504.26 2188.18,1493.27 2190.55,1490.9C2198.16,1483.29 2210.52,1483.29 2218.13,1490.9C2225.74,1498.51 2225.74,1510.87 2218.13,1518.48C2213.74,1522.86 2161.9,1556.64 2157.23,1561.31C2138.53,1580.01 2124.11,1597.51 2108.96,1612.72C2105,1616.7 2098.2,1626.64 2092.29,1633.61C2088.12,1638.53 2084.03,1642.35 2080.96,1644.37C2077.95,1646.34 2074.66,1646.99 2071.39,1646.84C2068.06,1647.94 2064.67,1647.89 2061.46,1647.29C2059.22,1646.87 2048.87,1645.05 2046.04,1632.36C2045.86,1631.55 2045.7,1627.13 2045.98,1623.73C2045.73,1624.98 2045.58,1626.4 2045.58,1628.02C2045.58,1621.87 2047.43,1616.07 2048.94,1610.16L2048.27,1609.75C2044.3,1607.1 2040.07,1602.62 2039.61,1594.59C2039.52,1593.15 2039.55,1591.08 2040.19,1588.54C2040.52,1587.24 2042.09,1583.53 2042.85,1582.01L2043.49,1580.77C2045.27,1571.81 2052.07,1537.75 2053.32,1532.46C2053.54,1531.52 2053.8,1530.6 2054.09,1529.68C2054.36,1524.5 2054.61,1517.28 2055.74,1511.61C2057.21,1504.17 2060.33,1498.34 2063.64,1494.88C2065.18,1493.27 2066.72,1492.03 2068.23,1491.1C2071.3,1487.12 2075.89,1484.32 2081.27,1483.65C2093.58,1482.13 2114.94,1482.49 2127.35,1486.72ZM2135.99,1528.88C2132.76,1531.19 2130.47,1532.91 2129.65,1533.74C2117.34,1546.04 2106.89,1557.83 2096.86,1568.78C2100.6,1562.45 2105.13,1553.94 2110.36,1546C2114.27,1540.06 2118.26,1534.15 2123.13,1531.38C2125.79,1529.87 2129.07,1530.22 2132.1,1529.68C2133.41,1529.45 2134.71,1529.19 2135.99,1528.88Z" style="fill:rgb(241,101,112);"></path></g><g transform="matrix(-1,0,0,1,3573.01,-0.48094)"><path d="M2249.59,1504.84C2249.35,1504.88 2248.58,1504.99 2248.19,1505.03C2246.81,1505.17 2245.4,1505.08 2244.02,1505.18C2241.81,1505.33 2239.54,1505.45 2237.32,1505.31C2235.11,1505.18 2232.89,1504.77 2230.71,1504.45C2227.8,1504.01 2224.87,1503.75 2221.97,1503.2C2219.92,1502.82 2217.85,1502.4 2215.79,1502.08C2213.46,1502.34 2211.03,1501.64 2209.15,1499.95C2205.66,1496.81 2205.38,1491.43 2208.52,1487.94C2209.32,1487.06 2210.46,1486.14 2212.11,1485.56C2213.41,1485.1 2217.4,1485.12 2218.17,1485.24C2220.48,1485.6 2222.8,1486.06 2225.11,1486.49C2227.8,1487 2230.52,1487.23 2233.23,1487.63C2234.92,1487.89 2236.63,1488.24 2238.34,1488.35C2239.84,1488.43 2241.37,1488.32 2242.86,1488.22C2244.07,1488.13 2245.3,1488.23 2246.5,1488.12C2247.38,1488.03 2248.39,1487.85 2249.24,1487.85C2253.93,1487.85 2257.74,1491.66 2257.74,1496.35C2257.74,1500.92 2254.12,1504.66 2249.59,1504.84ZM2219.76,1500.56L2219.7,1500.61L2219.81,1500.53L2219.76,1500.56ZM2220.16,1500.26L2220.03,1500.36L2220.2,1500.23L2220.16,1500.26ZM2220.31,1500.13C2220.61,1499.89 2220.89,1499.62 2221.15,1499.32C2220.91,1499.59 2220.63,1499.87 2220.31,1500.13Z" style="fill:rgb(241,101,112);"></path></g><g transform="matrix(-0.90884,0,0,0.948235,3371.3,77.8084)"><path d="M2246.26,1508.17C2245.73,1508.42 2244.18,1509.14 2243.77,1509.31C2242.71,1509.73 2241.73,1510.03 2240.72,1510.53C2240.33,1510.73 2237.86,1511.9 2237.1,1512.22C2236.28,1512.56 2231.97,1514.44 2230.76,1514.96C2229.1,1515.68 2227.51,1516.47 2225.89,1517.28C2223.96,1518.25 2216.58,1520.78 2214.64,1521.11C2212.05,1521.56 2210.27,1521.02 2209.47,1520.75C2204.62,1519.07 2202.09,1513.93 2203.84,1509.28C2205.06,1506.04 2208.02,1503.88 2211.35,1503.43C2212.29,1503.13 2216.35,1501.83 2217.23,1501.39C2219.17,1500.42 2221.08,1499.48 2223.08,1498.62C2224.32,1498.09 2228.75,1496.15 2229.59,1495.8C2230.11,1495.58 2231.81,1494.77 2232.08,1494.63C2233.59,1493.88 2235.04,1493.37 2236.63,1492.74C2237.41,1492.43 2240.06,1491.23 2240.66,1491.08C2241.44,1490.88 2244.38,1489.84 2245.05,1489.62C2246.01,1489.31 2249.98,1488.3 2249.98,1488.3C2249.98,1488.3 2249.54,1488.45 2249.41,1488.51C2250.77,1487.94 2257.21,1486.59 2259.05,1486.32C2260.32,1486.13 2261.56,1486.02 2262.86,1486.02C2268.03,1486.02 2272.22,1490.03 2272.22,1494.98C2272.22,1499.93 2268.03,1503.94 2262.86,1503.94C2262.53,1503.94 2262.22,1503.99 2261.9,1504.03C2260.9,1504.18 2256.36,1505.14 2256.36,1505.14C2256.36,1505.14 2256.78,1504.99 2256.91,1504.93C2256.2,1505.23 2252.25,1506.21 2251.04,1506.6C2250.34,1506.83 2247.77,1507.7 2246.26,1508.17Z" style="fill:rgb(241,101,112);"></path></g><g transform="matrix(-1,0,0,1,3573.01,-0.48094)"><path d="M2304.46,1492.12C2302.41,1492.73 2296.71,1494.38 2294.86,1494.07C2291.84,1493.57 2289.18,1493.65 2286.12,1493.41C2282.99,1493.16 2279.89,1493.08 2276.75,1493.08L2271.75,1493.08C2271.22,1493.08 2270.57,1492.99 2270.05,1493.14C2270.01,1493.15 2269.44,1493.49 2269.4,1493.44C2269.3,1493.35 2269.51,1493.31 2269.57,1493.31C2269.65,1493.31 2269.4,1493.31 2269.32,1493.31L2268.84,1493.31C2268.4,1493.31 2267.93,1493.44 2267.49,1493.36C2266.82,1493.25 2267.3,1491.99 2266.54,1492.42C2265.38,1493.08 2265.31,1495.19 2265.31,1496.39C2265.31,1496.48 2265.07,1497.49 2265.23,1497.57C2265.52,1497.72 2266.13,1497.5 2266.41,1497.45C2266.92,1497.35 2267.44,1497.34 2267.95,1497.23C2268.6,1497.1 2269.18,1496.74 2269.84,1496.66C2273.5,1496.25 2277.25,1496.55 2280.88,1495.94C2281.76,1495.8 2282.62,1495.65 2283.52,1495.54C2284.34,1495.44 2285.12,1495.66 2285.3,1494.79" style="fill:none;stroke:rgb(241,101,112);stroke-width:0.83px;stroke-linejoin:round;stroke-miterlimit:1.5;"></path></g><g transform="matrix(-1,0,0,1,3573.01,-0.48094)"><path d="M2189.07,1500.51C2189.01,1501.01 2188.88,1501.54 2188.7,1502.07C2188.1,1503.81 2186.96,1505.54 2185.47,1507.12C2184.55,1508.09 2183.39,1508.97 2182.69,1509.83C2179.05,1514.28 2175.23,1518.89 2171.87,1523.58C2171.38,1524.56 2168.76,1529.74 2167.21,1531.24C2164.54,1533.84 2161.58,1534.2 2159.12,1533.59C2156.85,1533.02 2154.41,1531.62 2152.15,1529.7C2150.24,1528.08 2148.44,1526.03 2147.03,1524.87C2140.49,1519.46 2134.36,1513.31 2128.36,1507.31C2125.5,1504.45 2122.73,1501.55 2119.55,1499.06C2119.06,1498.67 2118.57,1498.23 2118,1497.97C2118.23,1498.08 2118.93,1498.3 2118.93,1498.3C2118.93,1498.3 2114.04,1496.18 2113.37,1495.37C2112.08,1493.82 2111.56,1492.11 2111.6,1490.33C2111.63,1488.77 2112.01,1486.73 2114.14,1484.79C2115.1,1483.92 2116.47,1483.1 2118.27,1482.71C2119.91,1482.35 2122.72,1482.54 2123.84,1482.54C2128.79,1482.54 2135.57,1481.98 2140.33,1483.17C2149.67,1485.51 2160.46,1484.8 2170.28,1484.8C2178.63,1484.8 2187.01,1485.64 2195.46,1485.64C2199.6,1485.64 2202.96,1489 2202.96,1493.14C2202.96,1497.28 2199.6,1500.64 2195.46,1500.64C2193.33,1500.64 2191.2,1500.59 2189.07,1500.51ZM2140.89,1498.6L2140.88,1498.61L2140.86,1498.59L2140.89,1498.6Z" style="fill:rgb(241,101,112);"></path></g><g transform="matrix(-1,0,0,1,3573.01,-0.48094)"><path d="M2137.16,1544.81C2135.41,1546.17 2128.08,1551.85 2125.54,1553.76C2117.28,1559.95 2108.89,1565.8 2100.87,1572.29C2098.57,1574.15 2095.94,1576.03 2093.46,1578.08C2092.51,1578.86 2090.96,1580.49 2090.64,1580.83C2086.8,1592.33 2080.1,1603.06 2073.66,1613.29C2072.02,1615.88 2068.62,1621.15 2065.14,1624.22C2060.22,1628.55 2054.61,1630.4 2049.47,1630.4C2038.71,1630.4 2029.97,1621.66 2029.97,1610.9C2029.97,1603.71 2033.87,1597.42 2039.67,1594.05L2040.67,1592.48C2045.51,1584.8 2050.89,1576.92 2053.72,1568.27C2057.36,1557.17 2067.74,1548.94 2076.33,1541.98C2084.72,1535.19 2093.49,1529.04 2102.14,1522.56C2106.01,1519.65 2112.41,1513.8 2118.52,1510.46C2123.98,1507.47 2129.52,1506 2134.42,1506C2145.18,1506 2153.92,1514.74 2153.92,1525.5C2153.92,1535.33 2146.63,1543.48 2137.16,1544.81Z" style="fill:rgb(241,101,112);"></path></g><g transform="matrix(-1,0,0,1,3573.01,-0.48094)"><path d="M2088.75,1634.87C2088.51,1643.47 2084.17,1649.3 2078.08,1652.59L2077.81,1652.83L2077.81,1652.83C2077.14,1654.22 2075.74,1657.17 2075.15,1658.36C2073.08,1662.5 2067.98,1670.71 2063.27,1677.4C2062.64,1679.3 2061.26,1682.34 2058.3,1685.19C2057.37,1686.73 2056.07,1688.76 2054.95,1690.21L2055.15,1689.95C2055.15,1689.95 2051.84,1700.31 2051.03,1703.55C2050.51,1705.64 2048.45,1712.61 2046.34,1715.79C2042.79,1721.13 2038.05,1723.64 2033.96,1724.66C2027.71,1726.22 2019,1726.58 2011.8,1715.79C2006.67,1708.09 2007.74,1698.07 2013.82,1691.61C2015,1686.96 2016.79,1680.35 2019.02,1675.19C2020.28,1672.28 2021.75,1669.7 2023.28,1667.54C2024.02,1664.73 2025.7,1661.52 2029.13,1658.27C2032.06,1655.5 2038.27,1644.91 2040.27,1640.92C2041.88,1637.7 2044.43,1632.96 2047.38,1628.89C2047.64,1628.21 2047.94,1627.52 2048.29,1626.83C2049.6,1624.2 2052.97,1618.78 2053.83,1617.42C2054.57,1607.34 2063,1599.39 2073.27,1599.39C2084.03,1599.39 2092.77,1608.12 2092.77,1618.89C2092.77,1624.57 2091.24,1629.9 2088.75,1634.87L2088.75,1634.87ZM2042.66,1692.08L2042.7,1692.08C2043.23,1692.7 2043.75,1693.39 2044.25,1694.15C2043.76,1693.41 2043.23,1692.72 2042.66,1692.08ZM2036.66,1687.49C2038.27,1688.17 2039.89,1689.21 2041.45,1690.74L2041.33,1690.71C2039.92,1689.39 2038.34,1688.32 2036.66,1687.49ZM2058.61,1683.62C2057.88,1684.6 2057,1685.59 2055.95,1686.58C2056.71,1685.87 2057.61,1684.85 2058.61,1683.62ZM2034.17,1654.92C2031.82,1656.81 2029.02,1660.17 2026.99,1662.8C2027.84,1661.13 2029.04,1659.41 2030.68,1657.7C2030.9,1657.47 2032.14,1656.08 2033.39,1655.35C2033.65,1655.2 2033.91,1655.05 2034.17,1654.92Z" style="fill:rgb(241,101,112);"></path></g></g><g id="tandmedlångrotvector--1-.svg" transform="matrix(4.16667,0,0,4.16667,1606.13,1445.37)"><g transform="matrix(1,0,0,1,-420.995,-297.67)"><g id="Tandmedlång_rott_lager_1" transform="matrix(1,0,0,1,187.782,-31.6245)"><g><path d="M306.455,467.072C306.391,467.134 306.289,467.216 306.233,467.259L305.669,467.383C305.258,467.294 303.497,466.695 303.219,466.434C302.937,466.161 302.746,465.689 302.726,465.334C302.726,465.305 302.551,461.785 302.547,460.263C302.732,453.042 303.067,439.442 303.217,433.065C303.244,429.827 303.232,423.376 303.193,420.163C303.079,416.954 302.795,410.548 302.559,407.308C302.24,404.004 301.508,398.178 300.856,394.206C300.267,390.97 298.873,384.377 298.138,381.087C297.387,378.047 295.76,372.081 294.585,368.613C293.485,365.558 291.055,360.022 289.93,357.517C289.587,356.774 287.566,352.859 286.797,351.462C285.956,350.004 284.396,347.696 283.502,346.838C283.039,346.398 282,345.667 281.383,345.262C280.866,344.923 279.655,344.443 278.606,344.104C277.844,343.855 276.306,343.695 276.044,343.705C275.328,343.738 274.119,344.141 273.222,344.559C272.671,344.824 270.945,345.76 270.636,345.955C269.939,346.4 268.523,347.663 267.863,348.43C266.968,349.477 265.333,352.082 264.605,353.478C263.878,354.873 260.073,363.513 259.186,365.774C258.088,368.724 255.948,374.706 254.971,377.806C254.056,380.91 252.657,387.016 252.027,390.174C251.741,391.801 251.208,395.099 250.962,396.771C250.453,400.998 250.056,406.164 249.902,409.048C249.795,412 249.758,418.283 249.867,421.792C250.065,425.559 250.651,432.738 250.966,436.124C251.803,443.559 254.187,462.133 254.2,462.188C254.261,462.563 254.22,462.968 254.056,463.122C254.039,463.137 250.556,464.299 249.976,464.494C247.518,461.129 239.328,449.948 237.384,447.035C236.36,445.451 234.313,442.106 233.291,440.397C231.248,436.78 227.37,429.344 226.136,426.801C224.904,424.145 222.437,418.68 221.203,415.87C219.969,412.909 217.502,406.837 216.268,403.722C215.038,400.466 212.645,393.922 211.483,390.635C210.411,387.355 208.356,380.805 207.373,377.535C206.478,374.272 204.779,367.755 203.974,364.501C203.238,361.11 201.862,354.334 201.22,350.948C200.677,347.566 199.685,340.804 199.239,337.426C198.58,330.72 197.225,317.546 196.445,311.278C196.011,308.244 195.106,302.276 194.631,299.342C194.007,295.749 192.67,288.425 191.915,284.776C190.327,277.644 186.772,264.725 185.316,258.985C184.726,256.389 183.419,250.298 183.1,248.134C182.792,245.739 182.502,242.46 182.481,240.893C182.463,239.331 182.693,236.76 182.967,235.419C183.246,234.075 184.133,231.173 184.742,229.609C185.536,227.577 186.308,226.009 187.486,223.954C188.69,221.936 192.746,215.837 194.898,212.839C197.575,209.289 201.483,204.576 203.59,202.34C205.221,200.682 206.753,199.283 208.335,198.044C209.652,197.02 212.219,195.302 213.47,194.611C214.865,193.844 217.185,192.904 218.644,192.669C220.104,192.445 223.437,192.537 225.311,192.858C227.191,193.185 230.223,194.089 231.598,194.549C233.015,195.064 235.975,196.251 237.518,196.925C239.106,197.652 242.406,199.268 244.122,200.155C250.6,203.732 259.466,208.622 261.856,209.937C262.36,210.212 265.88,212.309 267.203,212.695C267.9,212.895 269.377,213.074 269.924,213.029C270.328,212.99 271.426,212.623 271.934,212.354C273.421,211.552 279.533,206.923 281.985,205.063C284.964,202.817 290.459,198.736 292.975,196.903C294.577,195.777 298.348,193.284 299.481,192.663C300.633,192.052 303.33,190.657 304.104,190.303C305.737,189.559 308.247,188.787 309.635,188.68C311.359,188.557 315.015,188.639 316.268,188.931C317.183,189.151 319.845,190.287 321.766,191.231C323.336,192.013 325.198,193.231 326.839,194.432C327.993,195.313 330.526,197.378 331.904,198.573C333.982,200.486 338.565,204.948 340.733,207.291C341.507,208.149 343.992,211.126 345.039,212.455C346.02,213.763 347.878,216.291 348.68,217.45C349.487,218.632 350.966,221.231 351.671,222.706C353.008,225.596 355.528,232.238 355.987,233.829C356.483,235.559 356.952,237.854 357.285,240.037C357.485,241.588 357.787,244.838 357.882,246.486C357.933,248.128 357.921,251.384 357.82,253.044C357.686,254.704 357.293,258.049 357.036,259.726C356.368,263.587 355.008,269.627 354.383,271.915C353.574,274.817 352.175,281.474 351.636,284.482C351.106,287.862 350.124,294.654 349.744,297.974C349.427,301.34 349.022,308.102 348.937,311.362C348.902,314.518 348.997,320.998 349.141,324.485C349.324,327.729 349.653,334.534 349.67,337.027C349.612,341.892 348.744,351.689 348.444,354.727C347.96,358.286 346.794,365.009 346.263,367.773C345.607,370.888 344.191,377.31 343.432,380.62C342.622,383.881 340.949,390.293 340.092,393.445C339.178,396.547 337.298,402.737 336.329,405.822C335.317,408.918 333.225,415.187 332.145,418.359C330.972,421.667 328.582,428.297 327.364,431.619C326.241,434.563 323.789,440.858 322.684,443.454C321.1,447.004 318.006,452.797 316.957,454.573C315.965,456.169 314.75,457.916 313.799,459.094C311.761,461.557 307.805,465.679 306.455,467.072Z" style="fill:rgb(255,246,230);fill-rule:nonzero;stroke:black;stroke-width:0.62px;"></path><path d="M308.409,460.411C308.333,460.376 306.198,458.241 305.739,457.782C305.49,454.579 305.488,449.658 305.505,447.257C305.575,440.189 305.612,426.742 305.579,420.362C305.531,416.742 305.276,409.684 305.069,406.246C304.731,401.877 304.054,396.211 303.575,392.961C303.034,389.775 301.763,383.593 301.03,380.54C300.232,377.479 297.978,369.81 297.437,368.226C296.256,364.98 293.643,358.465 292.211,355.198C291.456,353.563 289.922,350.354 289.14,348.87C288.249,347.268 286.758,344.908 285.95,343.82C285.141,342.736 283.345,340.749 282.407,339.99C281.743,339.457 280.358,338.585 279.665,338.262C278.97,337.943 277.569,337.527 276.859,337.428C276.153,337.336 274.683,337.367 273.993,337.498C273.277,337.638 271.846,338.188 271.134,338.593C270.424,339.004 269.013,340.09 268.314,340.765C266.911,342.129 264.909,344.919 264.214,346.036C263.673,346.908 261.827,350.292 261.035,351.888C259.468,355.241 256.53,362.616 255.162,366.074C254.14,368.652 252.019,373.982 251.846,374.722C250.75,379.516 248.69,388.584 248.201,391.408C247.917,393.307 247.454,397.234 247.277,399.266C247.006,403.294 246.938,410.755 247.024,414.304C247.195,417.96 247.787,425.579 248.209,429.543C248.616,433.141 249.353,439.613 249.682,442.487C250.174,446.745 250.312,447.675 250.104,447.93C250.05,447.99 242.593,447.918 242.544,447.891C242.49,447.858 238.24,440.428 236.354,437.175C234.636,434.046 231.884,428.634 230.53,425.904C229.121,422.868 226.798,417.799 225.239,414.113C222.76,407.968 217.776,395.389 215.624,389.567C214.564,386.613 212.147,379.8 211.419,377.526C210.936,375.938 210.031,372.676 209.592,371.028C208.591,366.805 207.663,361.931 207.212,359.21C206.393,353.684 204.968,340.629 204.153,333.584C203.176,326.377 201.232,312.607 200.267,306.043C199.119,298.67 196.961,284.282 195.949,277.265C195.577,274.196 194.923,268.347 194.639,265.57C194.532,264.291 194.285,260.946 194.156,258.2C194.079,255.153 194.139,251.104 194.314,249.282C194.493,247.445 195.812,241.506 196.246,239.549C196.478,238.5 196.869,237.679 197.63,235.964C198.689,233.549 199.776,231.329 200.849,229.599C201.588,228.414 203.748,225.472 204.818,224.123C205.964,222.747 208.193,220.204 209.265,219.003C210.744,217.423 213.011,215.277 214.266,214.358C215.309,213.599 217.879,212.043 218.985,211.62C219.611,211.383 220.929,211.015 221.548,210.97C222.968,210.877 225.91,211.546 227.08,211.899C228.384,212.307 236.726,215.244 239.991,216.396C243.249,217.524 249.921,219.778 253.035,220.636C255.158,221.177 257.867,221.761 259.659,222.014C261.412,222.261 263.86,222.391 266.094,222.399C267.585,222.378 271.043,222.228 271.963,222.14C273.508,221.977 276.528,221.551 278.005,221.288C281.302,220.63 285.777,219.245 290.043,217.67C293.123,216.472 299.226,214.154 302.413,213.049C303.974,212.549 307.041,211.605 308.496,211.206C310.586,210.684 312.836,210.241 314.534,210.077C316.307,209.91 319.037,210.054 320.551,210.445C321.787,210.768 324.54,212.076 325.875,212.93C327.195,213.778 330.018,215.993 331.131,217.052C331.896,217.783 334.445,220.636 335.543,221.969C336.564,223.275 338.411,225.686 339.236,226.793C340.194,228.099 341.511,230.595 342.194,232.376C342.723,233.812 343.482,236.437 343.862,237.776C344.798,241.179 345.444,246.328 345.778,250.561C345.969,253.754 346.203,260.685 346.238,264.32C346.162,270.865 345.71,284.196 345.477,290.748C345.399,294.169 345.294,300.733 345.267,303.878C345.278,306.933 345.352,313.529 345.413,317.069C345.522,320.364 345.847,328.202 346.018,329.975C346.17,331.267 346.444,333.845 346.487,335.131C346.541,338.49 346.024,344.32 345.765,347.05C345.461,349.638 344.253,357.029 343.741,359.845C343.091,363.077 341.69,369.781 340.939,373.256C339.448,379.524 336.294,392.223 334.63,398.653C333.733,401.899 331.886,408.427 330.935,411.708C329.944,415.016 327.993,421.374 327.035,424.423C326.082,427.276 323.795,433.82 322.54,437.052C321.349,439.881 318.716,445.566 317.356,448.058C316.527,449.498 314.902,452.118 314.102,453.384C312.978,455.114 309.117,460.405 308.92,460.596C308.638,460.499 308.469,460.438 308.409,460.411Z" style="fill:rgb(250,235,182);fill-rule:nonzero;stroke:black;stroke-width:0.62px;"></path><path d="M305.725,458.323L305.7,457.934" style="fill:none;fill-rule:nonzero;stroke:black;stroke-width:0.62px;"></path><g transform="matrix(1,0,0,1,-0.0554701,0.89002)"><path d="M239.226,311.759C239.234,310.99 238.888,309.408 238.578,308.781C238.261,308.159 237.327,307.153 236.712,306.767C236.179,306.442 234.346,305.763 233.801,305.504C233.052,305.144 231.596,304.241 230.888,303.697C229.658,302.745 227.212,300.161 226.523,299.262C225.731,298.225 224.223,295.759 223.505,294.331C222.606,292.531 221.53,289.686 221.244,287.956C221.106,287.096 220.989,285.325 221.012,284.412C221.063,282.583 221.752,278.995 222.299,277.345C222.752,275.994 223.962,273.176 224.721,271.709C225.383,270.433 227.35,267.181 228.382,265.613C229.491,264.019 232.056,260.576 233.099,259.356C234.299,257.959 236.644,255.636 237.792,254.713C238.938,253.793 241.178,252.429 242.272,251.981C242.867,251.744 244.187,251.36 244.92,251.246C245.693,251.133 247.218,251.137 247.966,251.255C248.715,251.378 250.186,251.853 250.91,252.207C252.362,252.927 254.171,254.458 256.481,256.696C257.775,257.916 260.217,260.115 261.365,261.092C264.44,263.597 267.956,265.873 269.237,266.432C269.865,266.704 271.08,267.064 271.607,267.074C272.2,267.076 273.467,266.724 274.137,266.368C275.374,265.702 277.923,263.324 278.778,262.355C279.704,261.3 281.49,258.917 282.73,257.111C283.796,255.478 286.065,251.831 287.217,250.561C287.824,249.903 289.083,248.827 289.735,248.412C290.389,248.002 291.747,247.428 292.448,247.264C293.152,247.105 294.563,247.033 295.357,247.12C296.369,247.235 298.595,248.008 299.741,248.642C300.889,249.284 303.287,251.072 304.538,252.219C305.791,253.376 307.953,255.71 309.722,257.813C310.966,259.362 313.24,262.421 314.27,263.929C315.373,265.622 316.961,268.374 317.669,269.818C318.345,271.209 319.613,274.377 320.129,276.284C320.643,278.201 321.153,281.943 321.149,283.77C321.141,285.601 320.74,288.279 320.174,290.83C319.79,292.412 318.932,295.471 318.559,296.53C318.132,297.746 316.858,300.575 316.054,301.815C315.457,302.724 314.182,304.051 313.569,304.403C312.941,304.699 311.787,305.296 311.438,305.794C311.115,306.273 310.907,307.501 311.014,308.32C311.141,309.229 312.655,314.057 313.606,316.546C314.686,319.219 317.774,326.231 318.745,328.663C319.397,330.407 320.623,334.028 321.195,335.902C321.738,337.821 322.746,341.79 323.209,343.839C323.854,346.941 325.085,354.091 325.471,356.725C325.821,359.413 326.414,364.965 326.654,367.827C326.839,370.773 327.14,376.782 327.253,379.843C327.325,383.772 327.22,388.845 326.959,392.924C326.642,396.411 325.708,403.65 325.093,407.4C324.377,411.239 322.645,419.182 321.631,423.283C320.643,426.947 318.492,434.137 317.362,437.776C316.085,441.534 313.386,449.171 311.964,453.048C310.395,457.043 307.111,465.155 305.398,469.269C301.82,477.331 295.598,491.192 292.952,496.995C291.107,500.918 289.266,504.607 289.015,505.008C288.947,505.115 288.766,505.306 288.743,505.113C288.718,504.868 289.471,502.348 290.002,500.78C291.491,496.635 296.472,483.644 299.391,476.144C301.008,471.869 303.972,463.418 305.32,459.242C306.577,455.101 308.821,446.916 309.806,442.874C310.703,438.862 312.228,430.944 312.855,427.034C313.275,424.113 314.151,415.372 314.398,411.552C314.554,407.766 314.589,400.313 314.47,396.641C314.365,394.825 314.108,391.213 313.958,389.415C313.76,387.635 313.32,384.097 313.077,382.336C312.499,378.855 311.189,372.145 310.53,368.866C309.872,365.797 308.551,359.866 307.891,357.006C307.231,354.355 305.906,349.261 305.243,346.819C304.581,344.587 302.349,337.463 300.825,333.75C299.973,331.728 298.235,328.313 297.348,326.923C296.453,325.526 294.97,323.775 293.73,322.52C292.802,321.607 290.782,319.821 289.938,319.165C288.965,318.412 287.108,317.161 285.962,316.489C285.164,316.016 281.64,314.882 280.066,314.545C278.492,314.212 275.09,313.839 273.619,313.845C271.996,313.856 268.793,314.425 267.232,314.981C266.452,315.263 264.983,315.923 264.146,316.372C263.214,316.876 260.889,318.896 259.912,319.887C258.935,320.881 257.145,322.977 256.08,324.37C255.331,325.38 253.305,328.4 252.408,329.846C251.531,331.325 249.849,334.376 249.04,335.945C248.252,337.548 246.746,340.847 246.024,342.543C245.234,344.472 243.206,350.611 242.426,353.252C241.688,355.953 240.332,361.532 239.713,364.41C239.483,365.585 238.973,369.014 238.796,370.653C238.654,372.346 238.471,375.893 238.434,377.746C238.425,381.558 238.837,388.999 239.271,393.558C239.608,396.353 240.378,402.097 240.81,405.043C241.34,408.135 242.496,414.471 243.124,417.711C243.846,421.101 245.391,428.025 246.21,431.559C247.915,438.473 251.309,451.824 252.998,458.259C253.837,461.295 255.512,467.249 256.347,470.166C257.972,475.2 261.204,484.903 262.8,489.332C264.913,494.909 268.935,504.668 268.937,504.781C268.943,505.193 268.892,505.477 268.783,505.635C268.704,505.736 264.039,495.572 262.192,491.531C259.801,486.275 254.475,474.543 251.54,468.07C249.867,464.377 246.467,456.794 244.739,452.906C243.149,449.086 240.116,441.526 238.672,437.788C237.339,434.11 234.895,426.875 233.784,423.318C232.746,419.803 230.89,412.893 230.071,409.499C229.327,406.145 228.059,399.558 227.537,396.327C227.249,394.267 226.702,390.026 226.477,387.859C226.286,385.714 226.006,381.48 225.92,379.394C225.866,377.327 225.862,373.252 225.912,371.244C225.996,369.257 226.27,365.34 226.457,363.41C226.679,361.501 227.226,357.743 227.553,355.893C227.913,354.063 228.736,350.46 229.199,348.691C229.925,346.134 232.346,338.644 233.357,335.468C234.223,332.572 235.813,327.065 236.537,324.452C237.154,322.051 238.174,317.672 238.578,315.695C238.876,313.928 239.223,311.852 239.226,311.759Z" style="fill:rgb(239,73,90);fill-rule:nonzero;stroke:black;stroke-width:0.62px;"></path></g></g></g></g></g><g id="Layer3"><g transform="matrix(1.08892,0.0622799,-0.0324676,0.567672,-110.083,301.366)"><path d="M1676.99,923.944C1676.99,930.18 1676.17,936.927 1676.14,943.47C1676.1,950.743 1676.98,957.764 1680.5,963.787C1683.46,968.846 1687.22,978.719 1689.81,983.887C1690.19,984.645 1690.9,985.591 1691.87,986.607C1693.78,988.609 1696.81,991.118 1699.88,993.69C1704.01,997.145 1708.23,1000.62 1709.51,1003.15C1713.81,1011.66 1735.36,1033.47 1738.4,1037.69C1739.01,1038.54 1739.88,1038.27 1740.32,1037.1C1740.76,1035.91 1740.63,1034.26 1740.01,1033.41C1737.01,1029.25 1715.73,1007.87 1711.48,999.474C1710.08,996.697 1705.51,992.647 1700.98,988.855C1698.41,986.702 1695.87,984.6 1694.02,982.811C1692.96,981.788 1692.15,980.944 1691.79,980.228C1689.16,974.982 1685.33,964.983 1682.33,959.848C1679.51,955.02 1678.86,949.348 1678.89,943.518C1678.92,936.959 1679.74,930.195 1679.74,923.944C1679.74,922.488 1679.13,921.306 1678.37,921.306C1677.61,921.306 1676.99,922.488 1676.99,923.944Z" style="fill:rgb(102,101,77);"></path></g><g transform="matrix(1.06568,0.0609507,-0.0537696,0.940121,-61.8115,-47.6311)"><path d="M1745.89,959.478C1745.83,959.46 1745.4,959.335 1745.07,959.209C1743.8,958.712 1741.93,957.786 1741,957.238C1737.37,955.117 1733.48,953.737 1729.86,951.553C1727.08,949.876 1723.71,948.603 1721.03,946.848C1719.03,945.537 1703.48,937.183 1700.87,935.745C1699,934.709 1695.84,932.926 1693.75,931.836C1691.29,930.549 1690.35,929.94 1688.99,929.356C1688.26,929.046 1687.45,929.461 1687.17,930.284C1686.9,931.107 1687.27,932.026 1687.99,932.337C1689.31,932.899 1690.21,933.491 1692.58,934.728C1694.64,935.81 1697.78,937.581 1699.64,938.609C1702.22,940.034 1717.64,948.307 1719.62,949.606C1722.33,951.378 1725.73,952.671 1728.54,954.365C1732.16,956.555 1736.07,957.942 1739.71,960.069C1740.73,960.668 1742.77,961.68 1744.16,962.222C1744.96,962.533 1745.61,962.674 1745.92,962.663C1746.69,962.633 1747.3,961.896 1747.28,961.017C1747.25,960.164 1746.64,959.49 1745.89,959.478Z" style="fill:rgb(102,101,77);"></path></g><g transform="matrix(0.974832,-0.0263578,0.0250861,0.927799,20.8367,115.932)"><path d="M1826.59,920.378C1826.8,920.233 1826.98,920.029 1827.11,919.776C1827.12,919.747 1826.56,916.514 1824.89,917.681C1824.86,917.699 1824.73,917.795 1824.5,917.957C1822.26,919.54 1811.04,927.496 1810.41,927.965C1808.48,929.38 1803.71,933.578 1801.74,934.886C1799.89,936.117 1797.45,938.148 1795.67,939.397C1793.76,940.744 1792.9,941.614 1791.03,942.887C1790.02,943.579 1787.97,945.141 1787.21,945.705C1786.07,946.545 1784.08,948.027 1783.1,948.715C1780.87,950.281 1777.99,952.375 1775.57,954.103C1772.73,956.135 1771.8,956.421 1769.07,958.418C1768.81,958.615 1764.79,960.61 1763.4,961.039C1763.21,961.098 1759.79,962.221 1757.39,962.347C1756.15,962.412 1754.83,962.273 1753.85,962.204C1753.49,962.179 1753.69,962.16 1753.32,962.113C1752.81,962.049 1751.68,961.945 1751.22,961.859C1749.77,961.585 1750.08,961.678 1748.45,961.36C1747.61,961.198 1746.81,961.778 1746.65,962.655C1746.5,963.532 1747.05,964.376 1747.89,964.538C1749.53,964.858 1749.22,964.764 1750.68,965.04C1751.17,965.133 1752.4,965.252 1752.95,965.322C1753.43,965.384 1753.17,965.396 1753.64,965.429C1754.72,965.505 1756.18,965.647 1757.55,965.575C1760.23,965.435 1764.05,964.206 1764.27,964.14C1765.88,963.643 1770.52,961.297 1770.83,961.069C1773.54,959.082 1774.47,958.798 1777.3,956.776C1779.71,955.054 1782.58,952.965 1784.81,951.404C1785.8,950.706 1787.83,949.202 1788.98,948.349C1789.72,947.799 1791.72,946.274 1792.71,945.599C1794.59,944.316 1795.45,943.441 1797.38,942.085C1799.14,940.849 1801.55,938.836 1803.39,937.618C1805.38,936.293 1810.22,932.047 1812.17,930.614C1812.81,930.146 1823.99,922.215 1826.22,920.637C1826.44,920.483 1826.59,920.374 1826.59,920.374L1826.59,920.378ZM1826.42,920.474C1825.86,920.777 1825.45,920.612 1825.38,920.594L1825.38,920.594C1825.48,920.622 1825.59,920.637 1825.7,920.64L1825.7,920.64L1825.7,920.64C1825.95,920.647 1826.2,920.589 1826.42,920.474ZM1826.51,920.426L1826.49,920.441L1826.5,920.435L1826.51,920.426Z" style="fill:rgb(102,101,77);"></path></g><g transform="matrix(1.62018,0.0735455,-0.0408768,0.900497,-1009.46,-32.091)"><path d="M1687.55,929.23C1687.55,929.313 1687.65,929.355 1687.6,929.453C1687.55,929.548 1687.52,929.683 1687.52,929.798C1687.52,929.806 1687.52,929.782 1687.52,929.774C1687.53,929.754 1687.54,929.739 1687.55,929.721C1687.57,929.672 1687.61,929.62 1687.66,929.592C1687.74,929.553 1687.82,929.53 1687.9,929.53C1687.9,929.53 1687.96,929.523 1687.96,929.53C1687.98,929.55 1687.94,929.551 1687.94,929.551" style="fill:none;stroke:rgb(102,101,77);stroke-width:0.76px;stroke-linejoin:round;stroke-miterlimit:1.5;"></path></g><path d="M1686.38,928.159C1686.38,928.148 1686.38,928.18 1686.38,928.191C1686.38,928.208 1686.39,928.228 1686.41,928.24" style="fill:none;stroke:rgb(102,101,77);stroke-width:0.21px;stroke-linejoin:round;stroke-miterlimit:1.5;"></path><g transform="matrix(1.00038,0.0454108,-0.0403158,0.88814,36.0039,26.8801)"><path d="M1689.51,930.295C1689.51,930.374 1689.52,930.484 1689.48,930.552C1689.47,930.581 1689.49,930.633 1689.45,930.633" style="fill:none;stroke:rgb(102,101,77);stroke-width:1.06px;stroke-linejoin:round;stroke-miterlimit:1.5;"></path></g><g transform="matrix(1.00038,0.0454108,-0.0403158,0.88814,36.0039,26.8801)"><path d="M1687.25,928.802L1687.25,928.808" style="fill:none;stroke:rgb(102,101,77);stroke-width:0.44px;stroke-linejoin:round;stroke-miterlimit:1.5;"></path></g><g transform="matrix(1.00038,0.0454108,-0.0403158,0.88814,36.0039,26.8801)"><path d="M1687.01,930.804C1687.01,930.664 1687.09,928.446 1687.06,928.446" style="fill:none;stroke:rgb(102,101,77);stroke-width:0.22px;stroke-linejoin:round;stroke-miterlimit:1.5;"></path></g><g transform="matrix(1.00038,0.0454108,-0.0403158,0.88814,36.0033,26.8183)"><path d="M1687.06,928.446C1687.42,928.67 1689.91,930.036 1689.91,930.032" style="fill:none;stroke:rgb(102,101,77);stroke-width:0.22px;stroke-linejoin:round;stroke-miterlimit:1.5;"></path></g><g transform="matrix(3.36111,0.192236,-0.100366,1.75482,-3897.26,-1027.19)"><path d="M1689.82,930.084C1689.82,930.186 1689.5,931.128 1689.5,931.147" style="fill:none;stroke:rgb(102,101,77);stroke-width:0.08px;stroke-linejoin:round;stroke-miterlimit:1.5;"></path></g><g transform="matrix(0.937234,0.00988398,-0.0046945,0.445149,119.488,499.134)"><path d="M1821.26,906.054C1821.26,911.454 1823,922.745 1823.72,932.86C1823.93,935.909 1824.05,938.841 1823.97,941.42C1823.9,943.499 1823.72,945.323 1823.26,946.644C1820.47,954.584 1819.03,964.401 1816.72,971.799C1814.46,979.069 1809.11,987.817 1805.68,994.676C1803.19,999.65 1799.22,1003.95 1795.07,1008.28C1790.67,1012.87 1786.09,1017.44 1782.65,1022.61C1775.28,1033.69 1767.77,1044.97 1760.44,1056.15C1759.18,1058.08 1757.25,1058.72 1755.25,1059.41C1752.83,1060.25 1750.32,1061.06 1748.39,1062.98C1747.59,1063.78 1747.25,1065.79 1747.63,1067.47C1748.01,1069.15 1748.97,1069.87 1749.77,1069.07C1751.82,1067.01 1754.64,1066.55 1757.15,1065.55C1759.17,1064.75 1761.01,1063.61 1762.32,1061.61C1769.64,1050.44 1777.15,1039.17 1784.52,1028.09C1788.51,1022.09 1794.12,1016.96 1799.06,1011.59C1802.56,1007.8 1805.73,1003.88 1807.88,999.562C1811.48,992.378 1817.03,983.106 1819.4,975.492C1821.67,968.191 1823.08,958.484 1825.83,950.648C1827.27,946.539 1827.43,939.514 1826.88,931.86C1826.19,922.114 1824.46,911.257 1824.46,906.054C1824.46,904.194 1823.75,902.684 1822.86,902.684C1821.98,902.684 1821.26,904.194 1821.26,906.054Z" style="fill:rgb(102,101,77);"></path></g><g transform="matrix(0.987334,-0.0266958,0.0252867,0.935219,-2.06151,109.668)"><path d="M1827.1,918.779C1827.1,918.73 1826.99,917.447 1826.89,917.215C1826.85,917.104 1826.66,916.448 1826.63,916.431C1826.58,916.405 1824.88,917.706 1824.74,917.871" style="fill:none;stroke:rgb(102,101,77);stroke-width:0.04px;stroke-linejoin:round;stroke-miterlimit:1.5;"></path></g><g transform="matrix(0.987334,-0.0266958,0.0252867,0.935219,-2.06151,109.668)"><path d="M1825.45,917.958C1825.58,917.891 1825.69,917.772 1825.79,917.67C1825.87,917.595 1825.98,917.517 1826.08,917.469C1826.11,917.454 1826.14,917.441 1826.17,917.42C1826.22,917.378 1826.38,917.318 1826.39,917.321C1826.39,917.321 1826.38,917.204 1826.38,917.209C1826.38,917.249 1826.38,917.284 1826.39,917.321C1826.42,917.419 1826.46,917.521 1826.48,917.626C1826.5,917.725 1826.5,917.834 1826.51,917.936C1826.52,918.03 1826.53,918.12 1826.53,918.215C1826.53,918.23 1826.51,918.291 1826.52,918.3C1826.54,918.319 1826.54,918.337 1826.55,918.363C1826.56,918.38 1826.61,918.855 1826.6,918.855" style="fill:none;stroke:rgb(102,101,77);stroke-width:1.04px;stroke-linejoin:round;stroke-miterlimit:1.5;"></path></g><g transform="matrix(0.987334,-0.0266958,0.0252867,0.935219,-2.06151,109.668)"><path d="M1826.23,916.848C1826.38,916.753 1826.59,916.497 1826.6,916.564C1826.61,916.681 1826.69,916.891 1826.67,916.9" style="fill:none;stroke:rgb(102,101,77);stroke-width:0.22px;stroke-linejoin:round;stroke-miterlimit:1.5;"></path></g><g transform="matrix(0.999776,0.0571816,-0.050766,0.887604,46.7485,7.66046)"><path d="M1688.97,946.776C1689.02,948.193 1689.25,951.423 1690.28,953.127C1695.23,961.315 1701.94,968.063 1709.9,973.74C1711.88,975.155 1734.89,990.058 1738.77,992.599C1739.54,993.109 1740.29,993.67 1741.03,994.227C1740.93,994.147 1740.66,993.913 1740.66,993.913C1740.66,993.913 1744.1,996.261 1744.81,996.357C1746.62,996.603 1748.08,995.997 1749.25,994.982C1749.93,994.39 1750.7,993.548 1751.17,992.236C1752.94,989.409 1752.53,985.472 1750.14,983.198C1748.88,982.007 1747.32,981.494 1745.81,981.627C1745.47,981.389 1745.13,981.158 1744.79,980.933C1740.97,978.427 1718.27,963.735 1716.31,962.338C1710.15,957.941 1704.84,952.826 1700.86,946.61C1700.85,945.489 1700.77,943.845 1700.47,942.88C1699.78,940.657 1698.74,938.77 1697.95,936.547C1696.72,933.09 1693.23,931.409 1690.16,932.795C1687.09,934.182 1685.6,938.114 1686.83,941.571C1687.48,943.411 1688.35,944.986 1688.97,946.776ZM1740.61,985.878L1740.59,985.923C1740.13,986.712 1739.62,987.841 1739.62,989.523C1739.62,988.491 1740.05,987.095 1740.61,985.878Z" style="fill:rgb(102,101,77);"></path></g><g transform="matrix(0.987334,-0.0266958,0.0252867,0.935219,-2.06151,109.668)"><path d="M1744.92,998.339C1746.35,998.836 1747.58,999.65 1748.88,1000.24C1751.35,1001.36 1753.94,1002 1757.08,1001.48C1759.9,1001.01 1762.29,999.439 1764.74,998.214C1770.15,995.509 1774.05,990.981 1779.09,988.031C1782.85,985.83 1786.28,983.944 1788.58,980.108C1790.37,977.118 1789.53,973.152 1786.7,971.258C1783.86,969.364 1780.11,970.254 1778.31,973.244C1777.15,975.189 1775.1,975.697 1773.2,976.813C1768.38,979.632 1764.71,984.038 1759.54,986.622C1758.11,987.336 1756.83,988.537 1755.19,988.811C1754.32,988.955 1753.69,988.477 1753.02,988.139C1751.64,987.444 1750.26,986.692 1748.74,986.161C1745.55,985.05 1742.11,986.876 1741.06,990.237C1740.01,993.598 1741.74,997.228 1744.92,998.339Z" style="fill:rgb(102,101,77);"></path></g><g transform="matrix(0.999776,0.0571816,-0.050766,0.887604,46.7485,7.66046)"><path d="M1697.74,949.24L1697.76,949.244C1701.57,950.78 1715.88,958.561 1718.73,960.097C1722.63,962.208 1723.22,962.482 1727.15,964.447C1732.69,967.217 1741.58,971.667 1747.15,974.451C1750.17,975.962 1753.71,974.425 1755.05,971.021C1756.4,967.617 1755.03,963.626 1752.01,962.114C1746.44,959.33 1737.56,954.881 1732.02,952.11C1728.23,950.219 1727.67,949.957 1723.91,947.926C1721.27,946.504 1709.2,939.966 1703.75,937.406C1701.25,936.229 1699.41,935.868 1698.89,935.868C1695.59,935.868 1692.9,938.892 1692.9,942.617C1692.9,945.899 1694.99,948.637 1697.74,949.24Z" style="fill:rgb(102,101,77);"></path></g><g transform="matrix(0.999776,0.0571816,-0.050766,0.887604,46.7485,7.66046)"><path d="M1707.22,960.038C1711.13,960.038 1714.54,962.835 1717.93,964.532C1720.77,965.95 1724,967.477 1726.51,969.461C1730.79,972.843 1734.71,976.642 1738.97,980.063C1743.33,983.561 1748.83,985.826 1752.81,989.803C1755.28,992.275 1759.07,992.021 1761.26,989.236C1763.46,986.451 1763.23,982.181 1760.76,979.709C1756.47,975.423 1750.62,972.843 1745.92,969.071C1741.64,965.629 1737.7,961.81 1733.39,958.407C1730.27,955.946 1726.31,953.953 1722.79,952.193C1717.93,949.765 1712.82,946.541 1707.22,946.541C1703.92,946.541 1701.23,949.565 1701.23,953.29C1701.23,957.014 1703.92,960.038 1707.22,960.038Z" style="fill:rgb(102,101,77);"></path></g><g transform="matrix(0.987334,-0.0266958,0.0252867,0.935219,-2.06151,109.668)"><path d="M1783.68,961.579C1780.93,962.681 1777.66,962.754 1774.79,963.287C1771.42,963.911 1768.03,964.784 1764.6,965.016C1755.01,965.667 1745.13,965.003 1735.5,965.003C1732.14,965.003 1729.42,967.877 1729.42,971.416C1729.42,974.956 1732.14,977.83 1735.5,977.83C1745.38,977.83 1755.53,978.484 1765.38,977.816C1769.25,977.554 1773.09,976.625 1776.89,975.92C1780.68,975.217 1784.97,974.887 1788.56,973.338C1792.24,971.752 1795.02,969.123 1795.02,964.785C1795.02,961.246 1792.29,958.372 1788.94,958.372C1786.69,958.372 1784.73,959.662 1783.68,961.579Z" style="fill:rgb(102,101,77);"></path></g><g transform="matrix(0.987334,-0.0266958,0.0252867,0.935219,-2.06151,109.668)"><path d="M1757.75,994.232C1763.55,987.942 1769.23,981.162 1776.75,976.886C1784.85,972.288 1794.33,969.859 1801.97,964.466C1804.45,962.716 1806.56,960.236 1808.69,958.107C1811.91,954.882 1815.22,951.652 1817.91,947.941C1818.62,946.958 1819.26,945.762 1819.86,944.527C1820.17,943.882 1820.35,943.141 1820.78,942.711C1823.21,940.277 1823.32,936.215 1821.01,933.645C1818.71,931.075 1814.86,930.965 1812.42,933.399C1811.41,934.411 1810.53,935.741 1809.76,937.221C1809.25,938.212 1808.85,939.336 1808.26,940.145C1805.96,943.319 1803.09,946.037 1800.33,948.795C1798.69,950.442 1797.13,952.451 1795.21,953.804C1787.89,958.974 1778.75,961.185 1771,965.592C1762.37,970.495 1755.69,978.074 1749.04,985.287C1746.7,987.823 1746.76,991.887 1749.16,994.355C1751.56,996.824 1755.41,996.769 1757.75,994.232Z" style="fill:rgb(102,101,77);"></path></g><g transform="matrix(0.994538,-0.0268906,0.0268056,0.991393,-16.5934,57.8636)"><path d="M1815.5,927.246L1815.19,927.472C1813.48,928.692 1811.54,929.503 1809.81,930.68C1807.63,932.159 1805.79,934.14 1803.78,935.829C1802.89,936.578 1801.4,937.157 1800.09,937.855C1798.39,938.765 1796.85,939.779 1795.79,940.836C1794.99,941.628 1794.42,942.399 1793.93,943.158C1793.67,943.558 1793.67,944.042 1793.21,944.392C1790.68,946.283 1789.21,946.447 1787.47,946.898C1785.47,947.419 1783.23,948.114 1780.07,949.963C1779.69,950.187 1773.26,954.433 1770.48,956.25C1770.64,956.145 1770.9,956.023 1770.9,956.023C1770.9,956.023 1769.88,956.559 1769.2,957.004L1769.1,957.051C1767.78,957.639 1766.46,958.077 1765.77,958.316C1764.54,958.742 1763.7,959.006 1763.07,959.217C1762.82,959.253 1762.4,959.317 1762.08,959.38C1761.81,959.433 1761.51,959.532 1761.21,959.643C1760.17,959.746 1758.72,959.838 1757.79,959.913C1757.04,959.839 1756.3,959.772 1755.92,959.7C1755.43,959.606 1753.23,959.434 1751.23,958.988C1749.64,958.634 1746.94,957.725 1746.55,957.629C1743.32,956.835 1740.05,958.824 1739.26,962.068C1738.47,965.311 1740.45,968.588 1743.69,969.382C1744.1,969.483 1746.94,970.427 1748.61,970.8C1750.78,971.281 1753.14,971.487 1753.67,971.588C1754.2,971.688 1755.43,971.778 1756.4,971.889C1756.99,972.012 1757.87,972.148 1758.29,972.166C1759.25,972.206 1760.05,972.045 1760.69,971.813C1761.61,971.746 1762.6,971.671 1763.26,971.59C1763.86,971.515 1764.44,971.339 1764.91,971.158C1765.68,971.013 1766.23,970.927 1766.72,970.754C1767.36,970.526 1768.24,970.259 1769.7,969.755C1770.59,969.447 1772.3,968.867 1774,968.107C1775.32,967.52 1775.89,967.15 1776.27,966.833C1776.53,966.704 1776.81,966.551 1777.05,966.393C1779.69,964.669 1785.79,960.627 1786.15,960.414C1789.3,958.573 1791.08,958.526 1793.03,957.942C1795.11,957.319 1797.34,956.4 1800.43,954.083C1801.76,953.087 1802.6,952.059 1803.3,950.975C1803.61,950.496 1803.76,949.943 1804.29,949.419C1804.99,948.722 1806.28,948.265 1807.41,947.677C1808.99,946.861 1810.46,945.996 1811.52,945.104C1813.23,943.674 1814.74,941.944 1816.58,940.692C1818.38,939.466 1820.39,938.604 1822.18,937.333C1825.53,934.941 1827.42,932.954 1827.42,928.521C1827.42,925.182 1824.72,922.471 1821.39,922.471C1818.5,922.471 1816.08,924.518 1815.5,927.246ZM1760.56,959.912C1760.23,960.044 1760.01,960.162 1760.01,960.162C1760.01,960.162 1760.24,960.051 1760.56,959.912Z" style="fill:rgb(102,101,77);"></path></g><g transform="matrix(0.977909,-0.026441,0.0241685,0.893861,15.8173,149.514)"><path d="M1815.2,930.44C1815.14,930.753 1815.1,931.037 1815.08,931.237C1814.8,933.967 1814.85,936.394 1813.6,938.899C1812.84,940.416 1811.62,941.763 1810.99,943.352C1810.11,945.581 1808.21,947.291 1807.02,949.327C1803.36,955.583 1797.23,959.795 1791.1,963.386C1789.01,964.611 1776.77,974.485 1774.99,975.923C1773.49,976.481 1772.18,977.675 1771.44,979.365C1769.97,982.702 1771.25,986.715 1774.3,988.321C1775.12,988.752 1777.4,989.71 1780.39,988.03C1783.27,986.408 1794.61,976.553 1796.88,975.219C1804.87,970.544 1812.58,964.709 1817.35,956.564C1818.88,953.94 1821.11,951.563 1822.25,948.69C1822.73,947.466 1823.78,946.507 1824.36,945.339C1826.42,941.216 1826.81,937.33 1827.26,932.849C1827.32,932.57 1827.71,930.94 1827.81,930.124C1828.01,928.617 1827.88,927.238 1827.57,926.129C1827.07,924.391 1826.14,923.015 1824.76,922.021C1823.78,921.314 1822.48,920.728 1820.69,920.728C1817.3,920.728 1814.55,923.734 1814.55,927.438C1814.55,928.517 1814.79,929.537 1815.2,930.44Z" style="fill:rgb(102,101,77);"></path></g><g transform="matrix(0.987334,-0.0266958,0.0285224,1.05489,-4.96133,2.41888)"><path d="M1824.71,919.578C1824.11,920.207 1823.43,918.682 1824.67,918.682C1824.77,918.682 1825.03,918.63 1825.08,918.742C1825.4,919.369 1824.06,920.44 1823.87,920.052C1823.69,919.678 1824.79,918.564 1825.01,918.786C1825.26,919.033 1824.83,920.889 1824.66,920.719C1824.49,920.544 1824.59,919.51 1824.63,919.262C1824.63,919.201 1824.85,918.557 1824.91,918.668C1825.15,919.122 1824.73,919.889 1824.46,920.232C1824.42,920.28 1823.9,920.718 1823.84,920.591C1823.64,920.185 1824.83,918.926 1825.25,918.926C1825.46,918.926 1824.83,919.06 1824.65,919.179C1824.42,919.334 1823.49,919.485 1823.4,919.666C1823.29,919.883 1824.08,919.846 1824.18,919.865C1824.32,919.889 1826.09,920.486 1825.75,920.857C1825.67,920.941 1825.36,920.455 1825.34,920.426C1824.98,919.952 1824.63,919.459 1824.26,919.011C1824.12,918.853 1823.98,918.253 1823.98,918.46L1823.98,919.626C1823.98,919.782 1823.86,920.2 1823.98,920.094C1824.29,919.805 1824.56,919.262 1824.83,918.913C1824.96,918.744 1825.37,918.262 1825.28,918.456C1825.19,918.639 1823.49,919.785 1823.41,919.714C1823.35,919.657 1825.04,918.411 1825.15,918.629C1825.36,919.026 1824.53,919.485 1824.53,919.872C1824.53,919.99 1824.53,919.637 1824.53,919.519C1824.53,919.363 1824.6,918.493 1824.44,918.575" style="fill:none;stroke:rgb(102,101,77);stroke-width:0.2px;stroke-linejoin:round;stroke-miterlimit:1.5;"></path></g></g></svg>