<svg width="100%" height="100%" viewBox="0 0 3508 2481" version="1.1" xmlns="http://www.w3.org/2000/svg" xmlns:xlink="http://www.w3.org/1999/xlink" xml:space="preserve" style="fill-rule:evenodd;clip-rule:evenodd;stroke-linecap:round;"><g transform="matrix(1.39301,0,0,1.16906,-553.431,71.1773)"><clipPath id="_clip1"><rect x="397.29" y="1201.67" width="2518.19" height="859.073"></rect></clipPath><g clip-path="url(#_clip1)"><ellipse cx="1656.38" cy="1739.34" rx="1785.22" ry="537.674" style="fill:rgb(251,211,210);"></ellipse></g></g><g id="tandmedlångrotvector--1-.svg" transform="matrix(4.16667,0,0,4.16667,1606.13,1445.37)"><g transform="matrix(1,0,0,1,-420.995,-297.67)"><g id="Tandmedlång_rott_lager_1" transform="matrix(1,0,0,1,187.782,-31.6245)"><g><path d="M306.455,467.072C306.391,467.134 306.289,467.216 306.233,467.259L305.669,467.383C305.258,467.294 303.497,466.695 303.219,466.434C302.937,466.161 302.746,465.689 302.726,465.334C302.726,465.305 302.551,461.785 302.547,460.263C302.732,453.042 303.067,439.442 303.217,433.065C303.244,429.827 303.232,423.376 303.193,420.163C303.079,416.954 302.795,410.548 302.559,407.308C302.24,404.004 301.508,398.178 300.856,394.206C300.267,390.97 298.873,384.377 298.138,381.087C297.387,378.047 295.76,372.081 294.585,368.613C293.485,365.558 291.055,360.022 289.93,357.517C289.587,356.774 287.566,352.859 286.797,351.462C285.956,350.004 284.396,347.696 283.502,346.838C283.039,346.398 282,345.667 281.383,345.262C280.866,344.923 279.655,344.443 278.606,344.104C277.844,343.855 276.306,343.695 276.044,343.705C275.328,343.738 274.119,344.141 273.222,344.559C272.671,344.824 270.945,345.76 270.636,345.955C269.939,346.4 268.523,347.663 267.863,348.43C266.968,349.477 265.333,352.082 264.605,353.478C263.878,354.873 260.073,363.513 259.186,365.774C258.088,368.724 255.948,374.706 254.971,377.806C254.056,380.91 252.657,387.016 252.027,390.174C251.741,391.801 251.208,395.099 250.962,396.771C250.453,400.998 250.056,406.164 249.902,409.048C249.795,412 249.758,418.283 249.867,421.792C250.065,425.559 250.651,432.738 250.966,436.124C251.803,443.559 254.187,462.133 254.2,462.188C254.261,462.563 254.22,462.968 254.056,463.122C254.039,463.137 250.556,464.299 249.976,464.494C247.518,461.129 239.328,449.948 237.384,447.035C236.36,445.451 234.313,442.106 233.291,440.397C231.248,436.78 227.37,429.344 226.136,426.801C224.904,424.145 222.437,418.68 221.203,415.87C219.969,412.909 217.502,406.837 216.268,403.722C215.038,400.466 212.645,393.922 211.483,390.635C210.411,387.355 208.356,380.805 207.373,377.535C206.478,374.272 204.779,367.755 203.974,364.501C203.238,361.11 201.862,354.334 201.22,350.948C200.677,347.566 199.685,340.804 199.239,337.426C198.58,330.72 197.225,317.546 196.445,311.278C196.011,308.244 195.106,302.276 194.631,299.342C194.007,295.749 192.67,288.425 191.915,284.776C190.327,277.644 186.772,264.725 185.316,258.985C184.726,256.389 183.419,250.298 183.1,248.134C182.792,245.739 182.502,242.46 182.481,240.893C182.463,239.331 182.693,236.76 182.967,235.419C183.246,234.075 184.133,231.173 184.742,229.609C185.536,227.577 186.308,226.009 187.486,223.954C188.69,221.936 192.746,215.837 194.898,212.839C197.575,209.289 201.483,204.576 203.59,202.34C205.221,200.682 206.753,199.283 208.335,198.044C209.652,197.02 212.219,195.302 213.47,194.611C214.865,193.844 217.185,192.904 218.644,192.669C220.104,192.445 223.437,192.537 225.311,192.858C227.191,193.185 230.223,194.089 231.598,194.549C233.015,195.064 235.975,196.251 237.518,196.925C239.106,197.652 242.406,199.268 244.122,200.155C250.6,203.732 259.466,208.622 261.856,209.937C262.36,210.212 265.88,212.309 267.203,212.695C267.9,212.895 269.377,213.074 269.924,213.029C270.328,212.99 271.426,212.623 271.934,212.354C273.421,211.552 279.533,206.923 281.985,205.063C284.964,202.817 290.459,198.736 292.975,196.903C294.577,195.777 298.348,193.284 299.481,192.663C300.633,192.052 303.33,190.657 304.104,190.303C305.737,189.559 308.247,188.787 309.635,188.68C311.359,188.557 315.015,188.639 316.268,188.931C317.183,189.151 319.845,190.287 321.766,191.231C323.336,192.013 325.198,193.231 326.839,194.432C327.993,195.313 330.526,197.378 331.904,198.573C333.982,200.486 338.565,204.948 340.733,207.291C341.507,208.149 343.992,211.126 345.039,212.455C346.02,213.763 347.878,216.291 348.68,217.45C349.487,218.632 350.966,221.231 351.671,222.706C353.008,225.596 355.528,232.238 355.987,233.829C356.483,235.559 356.952,237.854 357.285,240.037C357.485,241.588 357.787,244.838 357.882,246.486C357.933,248.128 357.921,251.384 357.82,253.044C357.686,254.704 357.293,258.049 357.036,259.726C356.368,263.587 355.008,269.627 354.383,271.915C353.574,274.817 352.175,281.474 351.636,284.482C351.106,287.862 350.124,294.654 349.744,297.974C349.427,301.34 349.022,308.102 348.937,311.362C348.902,314.518 348.997,320.998 349.141,324.485C349.324,327.729 349.653,334.534 349.67,337.027C349.612,341.892 348.744,351.689 348.444,354.727C347.96,358.286 346.794,365.009 346.263,367.773C345.607,370.888 344.191,377.31 343.432,380.62C342.622,383.881 340.949,390.293 340.092,393.445C339.178,396.547 337.298,402.737 336.329,405.822C335.317,408.918 333.225,415.187 332.145,418.359C330.972,421.667 328.582,428.297 327.364,431.619C326.241,434.563 323.789,440.858 322.684,443.454C321.1,447.004 318.006,452.797 316.957,454.573C315.965,456.169 314.75,457.916 313.799,459.094C311.761,461.557 307.805,465.679 306.455,467.072Z" style="fill:rgb(255,246,230);fill-rule:nonzero;stroke:black;stroke-width:0.62px;"></path><path d="M308.409,460.411C308.333,460.376 306.198,458.241 305.739,457.782C305.49,454.579 305.488,449.658 305.505,447.257C305.575,440.189 305.612,426.742 305.579,420.362C305.531,416.742 305.276,409.684 305.069,406.246C304.731,401.877 304.054,396.211 303.575,392.961C303.034,389.775 301.763,383.593 301.03,380.54C300.232,377.479 297.978,369.81 297.437,368.226C296.256,364.98 293.643,358.465 292.211,355.198C291.456,353.563 289.922,350.354 289.14,348.87C288.249,347.268 286.758,344.908 285.95,343.82C285.141,342.736 283.345,340.749 282.407,339.99C281.743,339.457 280.358,338.585 279.665,338.262C278.97,337.943 277.569,337.527 276.859,337.428C276.153,337.336 274.683,337.367 273.993,337.498C273.277,337.638 271.846,338.188 271.134,338.593C270.424,339.004 269.013,340.09 268.314,340.765C266.911,342.129 264.909,344.919 264.214,346.036C263.673,346.908 261.827,350.292 261.035,351.888C259.468,355.241 256.53,362.616 255.162,366.074C254.14,368.652 252.019,373.982 251.846,374.722C250.75,379.516 248.69,388.584 248.201,391.408C247.917,393.307 247.454,397.234 247.277,399.266C247.006,403.294 246.938,410.755 247.024,414.304C247.195,417.96 247.787,425.579 248.209,429.543C248.616,433.141 249.353,439.613 249.682,442.487C250.174,446.745 250.312,447.675 250.104,447.93C250.05,447.99 242.593,447.918 242.544,447.891C242.49,447.858 238.24,440.428 236.354,437.175C234.636,434.046 231.884,428.634 230.53,425.904C229.121,422.868 226.798,417.799 225.239,414.113C222.76,407.968 217.776,395.389 215.624,389.567C214.564,386.613 212.147,379.8 211.419,377.526C210.936,375.938 210.031,372.676 209.592,371.028C208.591,366.805 207.663,361.931 207.212,359.21C206.393,353.684 204.968,340.629 204.153,333.584C203.176,326.377 201.232,312.607 200.267,306.043C199.119,298.67 196.961,284.282 195.949,277.265C195.577,274.196 194.923,268.347 194.639,265.57C194.532,264.291 194.285,260.946 194.156,258.2C194.079,255.153 194.139,251.104 194.314,249.282C194.493,247.445 195.812,241.506 196.246,239.549C196.478,238.5 196.869,237.679 197.63,235.964C198.689,233.549 199.776,231.329 200.849,229.599C201.588,228.414 203.748,225.472 204.818,224.123C205.964,222.747 208.193,220.204 209.265,219.003C210.744,217.423 213.011,215.277 214.266,214.358C215.309,213.599 217.879,212.043 218.985,211.62C219.611,211.383 220.929,211.015 221.548,210.97C222.968,210.877 225.91,211.546 227.08,211.899C228.384,212.307 236.726,215.244 239.991,216.396C243.249,217.524 249.921,219.778 253.035,220.636C255.158,221.177 257.867,221.761 259.659,222.014C261.412,222.261 263.86,222.391 266.094,222.399C267.585,222.378 271.043,222.228 271.963,222.14C273.508,221.977 276.528,221.551 278.005,221.288C281.302,220.63 285.777,219.245 290.043,217.67C293.123,216.472 299.226,214.154 302.413,213.049C303.974,212.549 307.041,211.605 308.496,211.206C310.586,210.684 312.836,210.241 314.534,210.077C316.307,209.91 319.037,210.054 320.551,210.445C321.787,210.768 324.54,212.076 325.875,212.93C327.195,213.778 330.018,215.993 331.131,217.052C331.896,217.783 334.445,220.636 335.543,221.969C336.564,223.275 338.411,225.686 339.236,226.793C340.194,228.099 341.511,230.595 342.194,232.376C342.723,233.812 343.482,236.437 343.862,237.776C344.798,241.179 345.444,246.328 345.778,250.561C345.969,253.754 346.203,260.685 346.238,264.32C346.162,270.865 345.71,284.196 345.477,290.748C345.399,294.169 345.294,300.733 345.267,303.878C345.278,306.933 345.352,313.529 345.413,317.069C345.522,320.364 345.847,328.202 346.018,329.975C346.17,331.267 346.444,333.845 346.487,335.131C346.541,338.49 346.024,344.32 345.765,347.05C345.461,349.638 344.253,357.029 343.741,359.845C343.091,363.077 341.69,369.781 340.939,373.256C339.448,379.524 336.294,392.223 334.63,398.653C333.733,401.899 331.886,408.427 330.935,411.708C329.944,415.016 327.993,421.374 327.035,424.423C326.082,427.276 323.795,433.82 322.54,437.052C321.349,439.881 318.716,445.566 317.356,448.058C316.527,449.498 314.902,452.118 314.102,453.384C312.978,455.114 309.117,460.405 308.92,460.596C308.638,460.499 308.469,460.438 308.409,460.411Z" style="fill:rgb(250,235,182);fill-rule:nonzero;stroke:black;stroke-width:0.62px;"></path><path d="M305.725,458.323L305.7,457.934" style="fill:none;fill-rule:nonzero;stroke:black;stroke-width:0.62px;"></path><g transform="matrix(1,0,0,1,-0.0554701,0.89002)"><path d="M239.226,311.759C239.234,310.99 238.888,309.408 238.578,308.781C238.261,308.159 237.327,307.153 236.712,306.767C236.179,306.442 234.346,305.763 233.801,305.504C233.052,305.144 231.596,304.241 230.888,303.697C229.658,302.745 227.212,300.161 226.523,299.262C225.731,298.225 224.223,295.759 223.505,294.331C222.606,292.531 221.53,289.686 221.244,287.956C221.106,287.096 220.989,285.325 221.012,284.412C221.063,282.583 221.752,278.995 222.299,277.345C222.752,275.994 223.962,273.176 224.721,271.709C225.383,270.433 227.35,267.181 228.382,265.613C229.491,264.019 232.056,260.576 233.099,259.356C234.299,257.959 236.644,255.636 237.792,254.713C238.938,253.793 241.178,252.429 242.272,251.981C242.867,251.744 244.187,251.36 244.92,251.246C245.693,251.133 247.218,251.137 247.966,251.255C248.715,251.378 250.186,251.853 250.91,252.207C252.362,252.927 254.171,254.458 256.481,256.696C257.775,257.916 260.217,260.115 261.365,261.092C264.44,263.597 267.956,265.873 269.237,266.432C269.865,266.704 271.08,267.064 271.607,267.074C272.2,267.076 273.467,266.724 274.137,266.368C275.374,265.702 277.923,263.324 278.778,262.355C279.704,261.3 281.49,258.917 282.73,257.111C283.796,255.478 286.065,251.831 287.217,250.561C287.824,249.903 289.083,248.827 289.735,248.412C290.389,248.002 291.747,247.428 292.448,247.264C293.152,247.105 294.563,247.033 295.357,247.12C296.369,247.235 298.595,248.008 299.741,248.642C300.889,249.284 303.287,251.072 304.538,252.219C305.791,253.376 307.953,255.71 309.722,257.813C310.966,259.362 313.24,262.421 314.27,263.929C315.373,265.622 316.961,268.374 317.669,269.818C318.345,271.209 319.613,274.377 320.129,276.284C320.643,278.201 321.153,281.943 321.149,283.77C321.141,285.601 320.74,288.279 320.174,290.83C319.79,292.412 318.932,295.471 318.559,296.53C318.132,297.746 316.858,300.575 316.054,301.815C315.457,302.724 314.182,304.051 313.569,304.403C312.941,304.699 311.787,305.296 311.438,305.794C311.115,306.273 310.907,307.501 311.014,308.32C311.141,309.229 312.655,314.057 313.606,316.546C314.686,319.219 317.774,326.231 318.745,328.663C319.397,330.407 320.623,334.028 321.195,335.902C321.738,337.821 322.746,341.79 323.209,343.839C323.854,346.941 325.085,354.091 325.471,356.725C325.821,359.413 326.414,364.965 326.654,367.827C326.839,370.773 327.14,376.782 327.253,379.843C327.325,383.772 327.22,388.845 326.959,392.924C326.642,396.411 325.708,403.65 325.093,407.4C324.377,411.239 322.645,419.182 321.631,423.283C320.643,426.947 318.492,434.137 317.362,437.776C316.085,441.534 313.386,449.171 311.964,453.048C310.395,457.043 307.111,465.155 305.398,469.269C301.82,477.331 295.598,491.192 292.952,496.995C291.107,500.918 289.266,504.607 289.015,505.008C288.947,505.115 288.766,505.306 288.743,505.113C288.718,504.868 289.471,502.348 290.002,500.78C291.491,496.635 296.472,483.644 299.391,476.144C301.008,471.869 303.972,463.418 305.32,459.242C306.577,455.101 308.821,446.916 309.806,442.874C310.703,438.862 312.228,430.944 312.855,427.034C313.275,424.113 314.151,415.372 314.398,411.552C314.554,407.766 314.589,400.313 314.47,396.641C314.365,394.825 314.108,391.213 313.958,389.415C313.76,387.635 313.32,384.097 313.077,382.336C312.499,378.855 311.189,372.145 310.53,368.866C309.872,365.797 308.551,359.866 307.891,357.006C307.231,354.355 305.906,349.261 305.243,346.819C304.581,344.587 302.349,337.463 300.825,333.75C299.973,331.728 298.235,328.313 297.348,326.923C296.453,325.526 294.97,323.775 293.73,322.52C292.802,321.607 290.782,319.821 289.938,319.165C288.965,318.412 287.108,317.161 285.962,316.489C285.164,316.016 281.64,314.882 280.066,314.545C278.492,314.212 275.09,313.839 273.619,313.845C271.996,313.856 268.793,314.425 267.232,314.981C266.452,315.263 264.983,315.923 264.146,316.372C263.214,316.876 260.889,318.896 259.912,319.887C258.935,320.881 257.145,322.977 256.08,324.37C255.331,325.38 253.305,328.4 252.408,329.846C251.531,331.325 249.849,334.376 249.04,335.945C248.252,337.548 246.746,340.847 246.024,342.543C245.234,344.472 243.206,350.611 242.426,353.252C241.688,355.953 240.332,361.532 239.713,364.41C239.483,365.585 238.973,369.014 238.796,370.653C238.654,372.346 238.471,375.893 238.434,377.746C238.425,381.558 238.837,388.999 239.271,393.558C239.608,396.353 240.378,402.097 240.81,405.043C241.34,408.135 242.496,414.471 243.124,417.711C243.846,421.101 245.391,428.025 246.21,431.559C247.915,438.473 251.309,451.824 252.998,458.259C253.837,461.295 255.512,467.249 256.347,470.166C257.972,475.2 261.204,484.903 262.8,489.332C264.913,494.909 268.935,504.668 268.937,504.781C268.943,505.193 268.892,505.477 268.783,505.635C268.704,505.736 264.039,495.572 262.192,491.531C259.801,486.275 254.475,474.543 251.54,468.07C249.867,464.377 246.467,456.794 244.739,452.906C243.149,449.086 240.116,441.526 238.672,437.788C237.339,434.11 234.895,426.875 233.784,423.318C232.746,419.803 230.89,412.893 230.071,409.499C229.327,406.145 228.059,399.558 227.537,396.327C227.249,394.267 226.702,390.026 226.477,387.859C226.286,385.714 226.006,381.48 225.92,379.394C225.866,377.327 225.862,373.252 225.912,371.244C225.996,369.257 226.27,365.34 226.457,363.41C226.679,361.501 227.226,357.743 227.553,355.893C227.913,354.063 228.736,350.46 229.199,348.691C229.925,346.134 232.346,338.644 233.357,335.468C234.223,332.572 235.813,327.065 236.537,324.452C237.154,322.051 238.174,317.672 238.578,315.695C238.876,313.928 239.223,311.852 239.226,311.759Z" style="fill:rgb(239,73,90);fill-rule:nonzero;stroke:black;stroke-width:0.62px;"></path></g></g></g></g></g></svg>