<svg width="100%" height="100%" viewBox="0 0 3508 2481" version="1.1" xmlns="http://www.w3.org/2000/svg" xmlns:xlink="http://www.w3.org/1999/xlink" xml:space="preserve" style="fill-rule:evenodd;clip-rule:evenodd;stroke-linecap:round;"><g id="Layer1"><path d="M1569.46,882.78C1570.79,882.863 1575.73,883.222 1580.09,884.14C1599.02,888.132 1630.53,899.242 1649.63,910.025C1668.65,920.76 1702.05,937.123 1705.5,939.109C1711.12,942.34 1725.15,951.314 1735.76,956.682C1741.4,959.536 1746.34,961.335 1749.27,961.626C1762.07,962.901 1773.14,958.589 1782.24,952.741C1790.25,947.592 1796.6,941.27 1801.09,937.56C1813.19,927.564 1855.19,895.579 1860.23,892.342C1861.84,891.314 1886.49,874.291 1915.38,865.453C1916.47,865.119 1920.43,863.206 1934.93,863.052C1943.19,862.965 1960.07,871.422 1969.5,876.765C1982.04,883.872 1996.38,900.514 2001.08,904.941C2004.29,907.97 2009.36,907.821 2012.39,904.609C2015.42,901.396 2015.27,896.329 2012.06,893.3C2006.94,888.473 1991.06,870.594 1977.39,862.845C1965.86,856.314 1944.86,846.946 1934.76,847.053C1916.9,847.243 1912.05,849.741 1910.7,850.152C1879.75,859.62 1853.3,877.778 1851.59,878.88C1846.42,882.199 1803.32,914.971 1790.9,925.223C1786.76,928.642 1780.97,934.536 1773.59,939.281C1767.29,943.327 1759.71,946.587 1750.85,945.705C1749.12,945.533 1746.33,944.1 1742.99,942.407C1732.64,937.169 1718.96,928.392 1713.48,925.24C1710.02,923.249 1676.56,906.849 1657.5,896.091C1634.11,882.891 1593.35,869.284 1575.19,867.077C1570.88,866.554 1567.51,866.686 1565.37,867.202C1563,867.771 1561.33,868.837 1560.18,869.958C1557.03,873.046 1556.97,878.115 1560.06,881.271C1562.58,883.846 1566.42,884.357 1569.46,882.78Z" style="fill:rgb(255,210,129);"></path><g transform="matrix(0.905861,0,0,0.909639,181.105,77.0301)"><path d="M1915.83,857.071C1914.48,857.399 1913.13,857.721 1913,857.734C1912.68,857.767 1912.3,857.907 1912.19,857.949L1911.88,858.023C1911.77,858.052 1911.68,858.092 1911.58,858.136L1911.47,858.176L1911.35,858.173C1911.33,858.173 1910.93,858.051 1910.31,858.544C1910.07,858.612 1909.82,858.7 1909.67,858.8C1909.79,858.72 1909.97,858.597 1909.97,858.597C1909.97,858.597 1907.36,859.428 1907.36,859.428L1907.37,859.426C1907.25,859.453 1907.12,859.496 1907.01,859.553C1906.87,859.62 1906.09,863.221 1908.27,862.597C1908.64,862.491 1910.28,862.001 1911,861.736C1911.07,861.712 1911.13,861.687 1911.19,861.661C1911.29,861.648 1911.39,861.627 1911.49,861.597C1911.56,861.576 1911.64,861.545 1911.73,861.504C1911.98,861.469 1912.27,861.398 1912.6,861.278C1912.79,861.209 1912.64,861.23 1912.98,861.151C1913.14,861.113 1913.37,861.027 1913.46,860.993C1914.34,860.812 1919.18,859.637 1919.31,859.614C1919.42,859.593 1920.18,859.484 1920.56,859.378C1920.96,859.266 1921.23,859.087 1921.35,858.978C1921.79,858.612 1921.92,858.187 1921.95,857.833C1921.97,857.613 1921.95,857.391 1921.87,857.171C1921.83,856.937 1921.72,856.674 1921.49,856.401C1921.13,855.965 1920.78,855.772 1920.68,855.728C1920.47,855.633 1920.28,855.593 1920.11,855.583L1917.72,854.367C1917.24,854.028 1916.59,853.956 1916.03,854.236C1915.21,854.642 1914.87,855.632 1915.28,856.447C1915.31,856.508 1915.44,856.793 1915.83,857.071ZM1909.27,861.672C1909.13,861.999 1908.88,862.283 1908.55,862.469C1909.06,862.19 1909.2,861.819 1909.26,861.697L1909.27,861.672ZM1909.1,860.09C1909.41,860.522 1909.52,861.027 1909.29,861.62C1909.45,861.207 1909.44,860.731 1909.23,860.303C1909.19,860.228 1909.15,860.157 1909.1,860.09ZM1913.4,861.003L1913.33,861.016C1913.36,861.014 1913.38,861.009 1913.4,861.003ZM1909.02,859.99C1908.88,859.808 1908.5,859.348 1907.68,859.385C1908.19,859.366 1908.69,859.586 1909.02,859.99ZM1909.7,859.696C1909.76,859.338 1909.98,858.9 1909.98,858.9C1909.98,858.9 1909.95,858.945 1909.94,858.959C1909.76,859.247 1909.71,859.504 1909.7,859.696ZM1910.32,858.542C1910.63,858.451 1910.93,858.396 1910.93,858.396C1910.93,858.396 1910.72,858.385 1910.52,858.444C1910.47,858.459 1910.39,858.498 1910.32,858.542Z" style="fill:rgb(255,210,129);"></path></g><g transform="matrix(2.54968,0,0,1.30766,-2977.17,-263.446)"><path d="M1920.97,857.812C1921.07,857.763 1921.39,857.642 1921.5,857.6C1921.75,857.498 1922.44,858.321 1922.39,858.327C1922.17,858.35 1921.99,857.835 1921.89,857.688C1921.54,857.142 1921.37,856.651 1921.11,856.107" style="fill:none;stroke:rgb(255,210,129);stroke-width:0.49px;stroke-linejoin:round;stroke-miterlimit:1.5;"></path></g><path d="M1920.86,855.388C1921.73,855.234 1923.76,854.882 1925.48,855.106C1935.02,856.341 1949.6,861.764 1955.05,863.69C1956.36,864.15 1957.78,863.467 1958.24,862.166C1958.7,860.865 1958.02,859.435 1956.72,858.976C1951.08,856.984 1935.99,851.425 1926.12,850.147C1923.83,849.851 1921.13,850.26 1919.98,850.465C1918.62,850.706 1917.72,852.005 1917.96,853.364C1918.2,854.722 1919.5,855.629 1920.86,855.388Z" style="fill:rgb(255,210,129);"></path><path d="M1926.1,856.769C1929.28,858.23 1932.09,860.386 1935.32,861.752C1936.59,862.29 1938.05,861.695 1938.59,860.424C1939.13,859.154 1938.54,857.685 1937.26,857.147C1934.09,855.802 1931.32,853.667 1928.19,852.227C1926.94,851.65 1925.45,852.199 1924.88,853.452C1924.3,854.705 1924.85,856.191 1926.1,856.769Z" style="fill:rgb(255,210,129);"></path><path d="M1924.05,859.952C1924.12,860.384 1924.25,860.986 1924.47,861.352C1924.75,861.831 1925.18,862.339 1926,862.767C1927.22,863.407 1928.73,862.935 1929.37,861.712C1929.9,860.696 1929.67,859.48 1928.87,858.732C1928.74,858.115 1928.45,857.222 1927.88,856.674C1926.22,855.085 1924.1,853.914 1922.08,852.845C1920.86,852.197 1919.35,852.661 1918.7,853.88C1918.06,855.098 1918.52,856.613 1919.74,857.26C1921.21,858.042 1922.78,858.85 1924.05,859.952Z" style="fill:rgb(255,210,129);"></path><path d="M1946.47,861.801C1948.11,861.932 1949.63,862.622 1951.14,863.205C1952.43,863.7 1953.88,863.056 1954.38,861.767C1954.87,860.479 1954.23,859.032 1952.94,858.537C1950.98,857.784 1948.99,856.987 1946.87,856.817C1945.49,856.706 1944.29,857.733 1944.18,859.109C1944.07,860.484 1945.09,861.69 1946.47,861.801Z" style="fill:rgb(255,210,129);"></path><path d="M1950.66,862.185C1950.93,862.287 1953.21,863.144 1953.65,863.356C1954.89,863.952 1956.39,863.426 1956.98,862.182C1957.58,860.938 1957.05,859.443 1955.81,858.847C1955.25,858.58 1953.27,857.732 1952.16,857.409C1951.59,857.243 1951.12,857.192 1950.84,857.197C1949.46,857.223 1948.36,858.364 1948.39,859.743C1948.41,861.029 1949.41,862.071 1950.66,862.185Z" style="fill:rgb(255,210,129);"></path><g transform="matrix(1.33039,-0.162122,0.286416,2.35036,-793.942,-919.627)"><path d="M1508.83,898.625C1514.12,895.498 1519.01,890.842 1523.88,887.098C1528.3,883.709 1533.97,882.251 1539.54,880.242C1546,877.913 1551.15,876.398 1556.33,875.891C1571.06,874.45 1583.02,871.892 1596.67,878.33C1598.64,879.263 1601.59,879.112 1603.23,877.993C1604.88,876.874 1604.62,875.208 1602.64,874.275C1586.39,866.607 1572.28,868.973 1554.74,870.689C1548.53,871.297 1542.27,872.999 1534.53,875.79C1528,878.144 1521.55,879.993 1516.38,883.965C1511.73,887.532 1507.13,891.993 1502.09,894.973C1500.31,896.025 1500.37,897.697 1502.23,898.705C1504.09,899.713 1507.05,899.677 1508.83,898.625Z" style="fill:rgb(255,210,129);"></path></g><path d="M1961.46,864.193C1961.66,864.446 1962,864.573 1962.33,864.487C1962.77,864.373 1963.04,863.918 1962.93,863.472C1962.91,863.402 1962.87,863.292 1962.78,863.166C1962.72,863.088 1962.47,862.846 1962.06,862.524C1961.06,861.724 1958.99,860.207 1957.48,859.372C1956.67,858.929 1955.99,858.691 1955.6,858.696C1955.14,858.702 1954.77,859.08 1954.78,859.54C1954.78,859.999 1955.16,860.368 1955.62,860.363C1955.71,860.361 1955.83,860.423 1955.99,860.489C1956.25,860.602 1956.56,860.765 1956.9,860.959C1958.56,861.922 1960.8,863.614 1961.41,864.145L1961.46,864.193Z" style="fill:rgb(255,210,129);"></path><g transform="matrix(0.660703,0,0,1.50834,503.928,-704.286)"><path d="M1392.58,1489.01C1411.66,1480.87 1427.6,1467.18 1439.84,1450.53C1456.08,1428.44 1466.84,1400.88 1475.47,1376.75C1482.43,1357.3 1488.44,1339.89 1488.34,1319.48C1488.31,1312.53 1475.39,1306.9 1459.52,1306.91C1443.65,1306.93 1430.79,1312.58 1430.83,1319.54C1430.92,1338.54 1425.13,1354.74 1418.65,1372.85C1410.46,1395.72 1400.49,1421.87 1385.1,1442.81C1376.25,1454.84 1366.25,1465.08 1352.46,1470.96C1341.09,1475.81 1340.85,1483.79 1351.92,1488.77C1362.99,1493.75 1381.21,1493.86 1392.58,1489.01Z" style="fill:rgb(255,210,129);"></path></g><g transform="matrix(0.383014,0,0,1.05493,905.908,-70.6342)"><path d="M1405.91,1432.78L1405.03,1433.02C1401.22,1434.11 1391.27,1436.77 1387.05,1443.49C1381.57,1452.23 1373.45,1469.2 1372.07,1472.1C1356.45,1478.63 1355.65,1488.5 1371.32,1495.38C1385.63,1501.66 1409.26,1503.51 1428.94,1500.48C1436.5,1502.8 1446.05,1504.32 1456.66,1504.64C1483.94,1505.48 1507.97,1498.13 1510.29,1488.22C1516.93,1459.81 1522.69,1433.45 1511.56,1404.82C1504.62,1386.94 1459.47,1388.99 1453.56,1389.37C1444.74,1389.94 1422.84,1391.8 1414.57,1402.11C1414.03,1402.79 1412.59,1407.44 1412.1,1409.27C1411.45,1411.75 1410.77,1414.23 1410.14,1416.73C1408.79,1422.09 1407.43,1427.45 1405.91,1432.78Z" style="fill:rgb(255,210,129);"></path></g><g transform="matrix(-0.660703,0,0,1.50834,3041.2,-697.539)"><path d="M1352.46,1470.96C1366.25,1465.08 1376.25,1454.84 1385.1,1442.81C1400.49,1421.87 1410.46,1395.72 1418.65,1372.85C1425.13,1354.74 1430.92,1338.54 1430.83,1319.54C1430.79,1312.58 1443.65,1306.93 1459.52,1306.91C1475.39,1306.9 1488.31,1312.53 1488.34,1319.48C1488.44,1339.89 1482.43,1357.3 1475.47,1376.75C1466.84,1400.88 1456.08,1428.44 1439.84,1450.53C1427.6,1467.18 1411.66,1480.87 1392.58,1489.01C1381.21,1493.86 1362.99,1493.75 1351.92,1488.77C1340.85,1483.79 1341.09,1475.81 1352.46,1470.96Z" style="fill:rgb(255,210,129);"></path></g><g transform="matrix(-0.383014,0,0,1.05493,2639.22,-63.8867)"><path d="M1428.94,1500.48C1409.26,1503.51 1385.63,1501.66 1371.32,1495.38C1355.65,1488.5 1356.45,1478.63 1372.07,1472.1C1373.45,1469.2 1381.57,1452.23 1387.05,1443.49C1391.27,1436.77 1401.22,1434.11 1405.03,1433.02L1405.91,1432.78C1407.43,1427.45 1408.79,1422.09 1410.14,1416.73C1410.77,1414.23 1411.45,1411.75 1412.1,1409.27C1412.59,1407.44 1414.03,1402.79 1414.57,1402.11C1422.84,1391.8 1444.74,1389.94 1453.56,1389.37C1459.47,1388.99 1504.62,1386.94 1511.56,1404.82C1522.69,1433.45 1516.93,1459.81 1510.29,1488.22C1507.97,1498.13 1483.94,1505.48 1456.66,1504.64C1446.05,1504.32 1436.5,1502.8 1428.94,1500.48Z" style="fill:rgb(255,210,129);"></path></g></g><g transform="matrix(1.39301,0,0,1.16906,-553.431,71.1773)"><clipPath id="_clip1"><rect x="397.29" y="1201.67" width="2518.19" height="859.073"></rect></clipPath><g clip-path="url(#_clip1)"><ellipse cx="1656.38" cy="1739.34" rx="1785.22" ry="537.674" style="fill:rgb(251,211,210);"></ellipse></g></g><g id="tandmedlångrotvector--1-.svg" transform="matrix(4.16667,0,0,4.16667,1606.13,1445.37)"><g transform="matrix(1,0,0,1,-420.995,-297.67)"><g id="Tandmedlång_rott_lager_1" transform="matrix(1,0,0,1,187.782,-31.6245)"><g><path d="M306.455,467.072C306.391,467.134 306.289,467.216 306.233,467.259L305.669,467.383C305.258,467.294 303.497,466.695 303.219,466.434C302.937,466.161 302.746,465.689 302.726,465.334C302.726,465.305 302.551,461.785 302.547,460.263C302.732,453.042 303.067,439.442 303.217,433.065C303.244,429.827 303.232,423.376 303.193,420.163C303.079,416.954 302.795,410.548 302.559,407.308C302.24,404.004 301.508,398.178 300.856,394.206C300.267,390.97 298.873,384.377 298.138,381.087C297.387,378.047 295.76,372.081 294.585,368.613C293.485,365.558 291.055,360.022 289.93,357.517C289.587,356.774 287.566,352.859 286.797,351.462C285.956,350.004 284.396,347.696 283.502,346.838C283.039,346.398 282,345.667 281.383,345.262C280.866,344.923 279.655,344.443 278.606,344.104C277.844,343.855 276.306,343.695 276.044,343.705C275.328,343.738 274.119,344.141 273.222,344.559C272.671,344.824 270.945,345.76 270.636,345.955C269.939,346.4 268.523,347.663 267.863,348.43C266.968,349.477 265.333,352.082 264.605,353.478C263.878,354.873 260.073,363.513 259.186,365.774C258.088,368.724 255.948,374.706 254.971,377.806C254.056,380.91 252.657,387.016 252.027,390.174C251.741,391.801 251.208,395.099 250.962,396.771C250.453,400.998 250.056,406.164 249.902,409.048C249.795,412 249.758,418.283 249.867,421.792C250.065,425.559 250.651,432.738 250.966,436.124C251.803,443.559 254.187,462.133 254.2,462.188C254.261,462.563 254.22,462.968 254.056,463.122C254.039,463.137 250.556,464.299 249.976,464.494C247.518,461.129 239.328,449.948 237.384,447.035C236.36,445.451 234.313,442.106 233.291,440.397C231.248,436.78 227.37,429.344 226.136,426.801C224.904,424.145 222.437,418.68 221.203,415.87C219.969,412.909 217.502,406.837 216.268,403.722C215.038,400.466 212.645,393.922 211.483,390.635C210.411,387.355 208.356,380.805 207.373,377.535C206.478,374.272 204.779,367.755 203.974,364.501C203.238,361.11 201.862,354.334 201.22,350.948C200.677,347.566 199.685,340.804 199.239,337.426C198.58,330.72 197.225,317.546 196.445,311.278C196.011,308.244 195.106,302.276 194.631,299.342C194.007,295.749 192.67,288.425 191.915,284.776C190.327,277.644 186.772,264.725 185.316,258.985C184.726,256.389 183.419,250.298 183.1,248.134C182.792,245.739 182.502,242.46 182.481,240.893C182.463,239.331 182.693,236.76 182.967,235.419C183.246,234.075 184.133,231.173 184.742,229.609C185.536,227.577 186.308,226.009 187.486,223.954C188.69,221.936 192.746,215.837 194.898,212.839C197.575,209.289 201.483,204.576 203.59,202.34C205.221,200.682 206.753,199.283 208.335,198.044C209.652,197.02 212.219,195.302 213.47,194.611C214.865,193.844 217.185,192.904 218.644,192.669C220.104,192.445 223.437,192.537 225.311,192.858C227.191,193.185 230.223,194.089 231.598,194.549C233.015,195.064 235.975,196.251 237.518,196.925C239.106,197.652 242.406,199.268 244.122,200.155C250.6,203.732 259.466,208.622 261.856,209.937C262.36,210.212 265.88,212.309 267.203,212.695C267.9,212.895 269.377,213.074 269.924,213.029C270.328,212.99 271.426,212.623 271.934,212.354C273.421,211.552 279.533,206.923 281.985,205.063C284.964,202.817 290.459,198.736 292.975,196.903C294.577,195.777 298.348,193.284 299.481,192.663C300.633,192.052 303.33,190.657 304.104,190.303C305.737,189.559 308.247,188.787 309.635,188.68C311.359,188.557 315.015,188.639 316.268,188.931C317.183,189.151 319.845,190.287 321.766,191.231C323.336,192.013 325.198,193.231 326.839,194.432C327.993,195.313 330.526,197.378 331.904,198.573C333.982,200.486 338.565,204.948 340.733,207.291C341.507,208.149 343.992,211.126 345.039,212.455C346.02,213.763 347.878,216.291 348.68,217.45C349.487,218.632 350.966,221.231 351.671,222.706C353.008,225.596 355.528,232.238 355.987,233.829C356.483,235.559 356.952,237.854 357.285,240.037C357.485,241.588 357.787,244.838 357.882,246.486C357.933,248.128 357.921,251.384 357.82,253.044C357.686,254.704 357.293,258.049 357.036,259.726C356.368,263.587 355.008,269.627 354.383,271.915C353.574,274.817 352.175,281.474 351.636,284.482C351.106,287.862 350.124,294.654 349.744,297.974C349.427,301.34 349.022,308.102 348.937,311.362C348.902,314.518 348.997,320.998 349.141,324.485C349.324,327.729 349.653,334.534 349.67,337.027C349.612,341.892 348.744,351.689 348.444,354.727C347.96,358.286 346.794,365.009 346.263,367.773C345.607,370.888 344.191,377.31 343.432,380.62C342.622,383.881 340.949,390.293 340.092,393.445C339.178,396.547 337.298,402.737 336.329,405.822C335.317,408.918 333.225,415.187 332.145,418.359C330.972,421.667 328.582,428.297 327.364,431.619C326.241,434.563 323.789,440.858 322.684,443.454C321.1,447.004 318.006,452.797 316.957,454.573C315.965,456.169 314.75,457.916 313.799,459.094C311.761,461.557 307.805,465.679 306.455,467.072Z" style="fill:rgb(255,246,230);fill-rule:nonzero;stroke:black;stroke-width:0.62px;"></path><path d="M308.409,460.411C308.333,460.376 306.198,458.241 305.739,457.782C305.49,454.579 305.488,449.658 305.505,447.257C305.575,440.189 305.612,426.742 305.579,420.362C305.531,416.742 305.276,409.684 305.069,406.246C304.731,401.877 304.054,396.211 303.575,392.961C303.034,389.775 301.763,383.593 301.03,380.54C300.232,377.479 297.978,369.81 297.437,368.226C296.256,364.98 293.643,358.465 292.211,355.198C291.456,353.563 289.922,350.354 289.14,348.87C288.249,347.268 286.758,344.908 285.95,343.82C285.141,342.736 283.345,340.749 282.407,339.99C281.743,339.457 280.358,338.585 279.665,338.262C278.97,337.943 277.569,337.527 276.859,337.428C276.153,337.336 274.683,337.367 273.993,337.498C273.277,337.638 271.846,338.188 271.134,338.593C270.424,339.004 269.013,340.09 268.314,340.765C266.911,342.129 264.909,344.919 264.214,346.036C263.673,346.908 261.827,350.292 261.035,351.888C259.468,355.241 256.53,362.616 255.162,366.074C254.14,368.652 252.019,373.982 251.846,374.722C250.75,379.516 248.69,388.584 248.201,391.408C247.917,393.307 247.454,397.234 247.277,399.266C247.006,403.294 246.938,410.755 247.024,414.304C247.195,417.96 247.787,425.579 248.209,429.543C248.616,433.141 249.353,439.613 249.682,442.487C250.174,446.745 250.312,447.675 250.104,447.93C250.05,447.99 242.593,447.918 242.544,447.891C242.49,447.858 238.24,440.428 236.354,437.175C234.636,434.046 231.884,428.634 230.53,425.904C229.121,422.868 226.798,417.799 225.239,414.113C222.76,407.968 217.776,395.389 215.624,389.567C214.564,386.613 212.147,379.8 211.419,377.526C210.936,375.938 210.031,372.676 209.592,371.028C208.591,366.805 207.663,361.931 207.212,359.21C206.393,353.684 204.968,340.629 204.153,333.584C203.176,326.377 201.232,312.607 200.267,306.043C199.119,298.67 196.961,284.282 195.949,277.265C195.577,274.196 194.923,268.347 194.639,265.57C194.532,264.291 194.285,260.946 194.156,258.2C194.079,255.153 194.139,251.104 194.314,249.282C194.493,247.445 195.812,241.506 196.246,239.549C196.478,238.5 196.869,237.679 197.63,235.964C198.689,233.549 199.776,231.329 200.849,229.599C201.588,228.414 203.748,225.472 204.818,224.123C205.964,222.747 208.193,220.204 209.265,219.003C210.744,217.423 213.011,215.277 214.266,214.358C215.309,213.599 217.879,212.043 218.985,211.62C219.611,211.383 220.929,211.015 221.548,210.97C222.968,210.877 225.91,211.546 227.08,211.899C228.384,212.307 236.726,215.244 239.991,216.396C243.249,217.524 249.921,219.778 253.035,220.636C255.158,221.177 257.867,221.761 259.659,222.014C261.412,222.261 263.86,222.391 266.094,222.399C267.585,222.378 271.043,222.228 271.963,222.14C273.508,221.977 276.528,221.551 278.005,221.288C281.302,220.63 285.777,219.245 290.043,217.67C293.123,216.472 299.226,214.154 302.413,213.049C303.974,212.549 307.041,211.605 308.496,211.206C310.586,210.684 312.836,210.241 314.534,210.077C316.307,209.91 319.037,210.054 320.551,210.445C321.787,210.768 324.54,212.076 325.875,212.93C327.195,213.778 330.018,215.993 331.131,217.052C331.896,217.783 334.445,220.636 335.543,221.969C336.564,223.275 338.411,225.686 339.236,226.793C340.194,228.099 341.511,230.595 342.194,232.376C342.723,233.812 343.482,236.437 343.862,237.776C344.798,241.179 345.444,246.328 345.778,250.561C345.969,253.754 346.203,260.685 346.238,264.32C346.162,270.865 345.71,284.196 345.477,290.748C345.399,294.169 345.294,300.733 345.267,303.878C345.278,306.933 345.352,313.529 345.413,317.069C345.522,320.364 345.847,328.202 346.018,329.975C346.17,331.267 346.444,333.845 346.487,335.131C346.541,338.49 346.024,344.32 345.765,347.05C345.461,349.638 344.253,357.029 343.741,359.845C343.091,363.077 341.69,369.781 340.939,373.256C339.448,379.524 336.294,392.223 334.63,398.653C333.733,401.899 331.886,408.427 330.935,411.708C329.944,415.016 327.993,421.374 327.035,424.423C326.082,427.276 323.795,433.82 322.54,437.052C321.349,439.881 318.716,445.566 317.356,448.058C316.527,449.498 314.902,452.118 314.102,453.384C312.978,455.114 309.117,460.405 308.92,460.596C308.638,460.499 308.469,460.438 308.409,460.411Z" style="fill:rgb(250,235,182);fill-rule:nonzero;stroke:black;stroke-width:0.62px;"></path><path d="M305.725,458.323L305.7,457.934" style="fill:none;fill-rule:nonzero;stroke:black;stroke-width:0.62px;"></path><g transform="matrix(1,0,0,1,-0.0554701,0.89002)"><path d="M239.226,311.759C239.234,310.99 238.888,309.408 238.578,308.781C238.261,308.159 237.327,307.153 236.712,306.767C236.179,306.442 234.346,305.763 233.801,305.504C233.052,305.144 231.596,304.241 230.888,303.697C229.658,302.745 227.212,300.161 226.523,299.262C225.731,298.225 224.223,295.759 223.505,294.331C222.606,292.531 221.53,289.686 221.244,287.956C221.106,287.096 220.989,285.325 221.012,284.412C221.063,282.583 221.752,278.995 222.299,277.345C222.752,275.994 223.962,273.176 224.721,271.709C225.383,270.433 227.35,267.181 228.382,265.613C229.491,264.019 232.056,260.576 233.099,259.356C234.299,257.959 236.644,255.636 237.792,254.713C238.938,253.793 241.178,252.429 242.272,251.981C242.867,251.744 244.187,251.36 244.92,251.246C245.693,251.133 247.218,251.137 247.966,251.255C248.715,251.378 250.186,251.853 250.91,252.207C252.362,252.927 254.171,254.458 256.481,256.696C257.775,257.916 260.217,260.115 261.365,261.092C264.44,263.597 267.956,265.873 269.237,266.432C269.865,266.704 271.08,267.064 271.607,267.074C272.2,267.076 273.467,266.724 274.137,266.368C275.374,265.702 277.923,263.324 278.778,262.355C279.704,261.3 281.49,258.917 282.73,257.111C283.796,255.478 286.065,251.831 287.217,250.561C287.824,249.903 289.083,248.827 289.735,248.412C290.389,248.002 291.747,247.428 292.448,247.264C293.152,247.105 294.563,247.033 295.357,247.12C296.369,247.235 298.595,248.008 299.741,248.642C300.889,249.284 303.287,251.072 304.538,252.219C305.791,253.376 307.953,255.71 309.722,257.813C310.966,259.362 313.24,262.421 314.27,263.929C315.373,265.622 316.961,268.374 317.669,269.818C318.345,271.209 319.613,274.377 320.129,276.284C320.643,278.201 321.153,281.943 321.149,283.77C321.141,285.601 320.74,288.279 320.174,290.83C319.79,292.412 318.932,295.471 318.559,296.53C318.132,297.746 316.858,300.575 316.054,301.815C315.457,302.724 314.182,304.051 313.569,304.403C312.941,304.699 311.787,305.296 311.438,305.794C311.115,306.273 310.907,307.501 311.014,308.32C311.141,309.229 312.655,314.057 313.606,316.546C314.686,319.219 317.774,326.231 318.745,328.663C319.397,330.407 320.623,334.028 321.195,335.902C321.738,337.821 322.746,341.79 323.209,343.839C323.854,346.941 325.085,354.091 325.471,356.725C325.821,359.413 326.414,364.965 326.654,367.827C326.839,370.773 327.14,376.782 327.253,379.843C327.325,383.772 327.22,388.845 326.959,392.924C326.642,396.411 325.708,403.65 325.093,407.4C324.377,411.239 322.645,419.182 321.631,423.283C320.643,426.947 318.492,434.137 317.362,437.776C316.085,441.534 313.386,449.171 311.964,453.048C310.395,457.043 307.111,465.155 305.398,469.269C301.82,477.331 295.598,491.192 292.952,496.995C291.107,500.918 289.266,504.607 289.015,505.008C288.947,505.115 288.766,505.306 288.743,505.113C288.718,504.868 289.471,502.348 290.002,500.78C291.491,496.635 296.472,483.644 299.391,476.144C301.008,471.869 303.972,463.418 305.32,459.242C306.577,455.101 308.821,446.916 309.806,442.874C310.703,438.862 312.228,430.944 312.855,427.034C313.275,424.113 314.151,415.372 314.398,411.552C314.554,407.766 314.589,400.313 314.47,396.641C314.365,394.825 314.108,391.213 313.958,389.415C313.76,387.635 313.32,384.097 313.077,382.336C312.499,378.855 311.189,372.145 310.53,368.866C309.872,365.797 308.551,359.866 307.891,357.006C307.231,354.355 305.906,349.261 305.243,346.819C304.581,344.587 302.349,337.463 300.825,333.75C299.973,331.728 298.235,328.313 297.348,326.923C296.453,325.526 294.97,323.775 293.73,322.52C292.802,321.607 290.782,319.821 289.938,319.165C288.965,318.412 287.108,317.161 285.962,316.489C285.164,316.016 281.64,314.882 280.066,314.545C278.492,314.212 275.09,313.839 273.619,313.845C271.996,313.856 268.793,314.425 267.232,314.981C266.452,315.263 264.983,315.923 264.146,316.372C263.214,316.876 260.889,318.896 259.912,319.887C258.935,320.881 257.145,322.977 256.08,324.37C255.331,325.38 253.305,328.4 252.408,329.846C251.531,331.325 249.849,334.376 249.04,335.945C248.252,337.548 246.746,340.847 246.024,342.543C245.234,344.472 243.206,350.611 242.426,353.252C241.688,355.953 240.332,361.532 239.713,364.41C239.483,365.585 238.973,369.014 238.796,370.653C238.654,372.346 238.471,375.893 238.434,377.746C238.425,381.558 238.837,388.999 239.271,393.558C239.608,396.353 240.378,402.097 240.81,405.043C241.34,408.135 242.496,414.471 243.124,417.711C243.846,421.101 245.391,428.025 246.21,431.559C247.915,438.473 251.309,451.824 252.998,458.259C253.837,461.295 255.512,467.249 256.347,470.166C257.972,475.2 261.204,484.903 262.8,489.332C264.913,494.909 268.935,504.668 268.937,504.781C268.943,505.193 268.892,505.477 268.783,505.635C268.704,505.736 264.039,495.572 262.192,491.531C259.801,486.275 254.475,474.543 251.54,468.07C249.867,464.377 246.467,456.794 244.739,452.906C243.149,449.086 240.116,441.526 238.672,437.788C237.339,434.11 234.895,426.875 233.784,423.318C232.746,419.803 230.89,412.893 230.071,409.499C229.327,406.145 228.059,399.558 227.537,396.327C227.249,394.267 226.702,390.026 226.477,387.859C226.286,385.714 226.006,381.48 225.92,379.394C225.866,377.327 225.862,373.252 225.912,371.244C225.996,369.257 226.27,365.34 226.457,363.41C226.679,361.501 227.226,357.743 227.553,355.893C227.913,354.063 228.736,350.46 229.199,348.691C229.925,346.134 232.346,338.644 233.357,335.468C234.223,332.572 235.813,327.065 236.537,324.452C237.154,322.051 238.174,317.672 238.578,315.695C238.876,313.928 239.223,311.852 239.226,311.759Z" style="fill:rgb(239,73,90);fill-rule:nonzero;stroke:black;stroke-width:0.62px;"></path></g></g></g></g></g></svg>